<?xml version="1.0" standalone="yes"?>
<svg xmlns="http://www.w3.org/2000/svg" width="474" height="248">
<path style="fill:#d93113; stroke:none;" d="M0 0L0 19C33.58 31.0161 65.1063 53.2488 97 69.2469C115.201 78.3768 132.774 88.2739 154 82C139.255 69.1889 116.31 61.337 99 52.2191C66.2608 34.9738 33.738 15.0812 0 0z"/>
<path style="fill:#c77066; stroke:none;" d="M2.33333 0.666672L2.66667 1.33333L2.33333 0.666672z"/>
<path style="fill:#eea496; stroke:none;" d="M3.33333 0.666672L3.66667 1.33333L3.33333 0.666672z"/>
<path style="fill:#fcfaf9; stroke:none;" d="M4 0L17 8.75232L45 23.4599L158 83C145.894 84.1546 130.418 86.4315 119 81.2145C105.037 74.8343 91.6487 66.7862 78 59.7415C72.3561 56.8285 66.5195 51.951 60 52C56.8809 47.2375 49.9166 45.0717 45 42.4244C31.6099 35.2145 14.9686 22.6996 0 20C0.0432894 32.2211 14.6143 35.1631 24 40.3056C49.9952 54.5484 76.6375 70.608 104 82L104 83L0 83L0 99L213 99L213 0L198 0L198 76C165.223 59.1593 132.41 42.2196 100 24.6914C86.1275 17.1887 68.307 3.68538 53 0.302475C38.0842 -2.99397 19.2926 0 4 0z"/>
<path style="fill:#eea496; stroke:none;" d="M55 0L56 1L55 0z"/>
<path style="fill:#c77066; stroke:none;" d="M56 0L57 1L56 0z"/>
<path style="fill:#2e2d71; stroke:none;" d="M56 1C71.3879 13.7502 94.2915 21.437 112 30.7809C131.317 40.9736 150.589 51.2399 170 61.2585C179.105 65.9579 188.094 72.1464 198 75L198 0L102 0C87.8272 0 69.5895 -3.01683 56 1z"/>
<path style="fill:#eea496; stroke:none;" d="M213 0L213 99L0 99L0 100L157 100L197 100C200.929 100 209.15 101.544 212.397 98.9722C216.455 95.7578 214 80.8134 214 76L214 24C214 16.7844 215.802 6.6777 213 0z"/>
<path style="fill:#d93113; stroke:none;" d="M214 0L214 100L0 100L0 149L214 149L214 248L261 248L261 149L474 149L474 100L261 100L261 0L214 0z"/>
<path style="fill:#eea496; stroke:none;" d="M261 0L261 100L474 100L474 99L262 99L262 30L261 0z"/>
<path style="fill:#fcfaf9; stroke:none;" d="M262 0L262 99L474 99L474 83L371 83L371 82L447 42.4244L472.972 28.3009L474 2C460.939 4.32825 447.731 14.6861 436 20.7415C411.616 33.3286 387.269 45.9752 363 58.7809C348.644 66.3559 332.693 78.3856 317 82.5965C305.908 85.5727 293.249 84.0728 282 83L282 82C321.134 65.7071 360.118 42.9029 397 22C407.653 15.9626 429.266 10.281 436 0C414.322 0 395.813 13.5169 377 23.6914C343.924 41.5799 310.279 58.4898 277 76L277 0L262 0z"/>
<path style="fill:#2e2d71; stroke:none;" d="M277 0L277 75C298.902 68.6904 320.966 53.1436 341 42.3086C366.645 28.4391 394.657 17.0539 419 1C407.782 -3.70721 388.206 0 376 0L277 0z"/>
<path style="fill:#eea496; stroke:none;" d="M419.333 0.666672L419.667 1.33333L419.333 0.666672M436.333 0.666672L436.667 1.33333L436.333 0.666672z"/>
<path style="fill:#c77066; stroke:none;" d="M437.333 0.666672L437.667 1.33333L437.333 0.666672z"/>
<path style="fill:#d93113; stroke:none;" d="M285 83L316 82.3657L356 62.1667L426 25.4244L457 9.24692L471 0L440.17 0.274689L408 16.7523L332 56.7022L299 74.0802L285 83z"/>
<path style="fill:#c77066; stroke:none;" d="M471.333 0.666672L471.667 1.33333L471.333 0.666672z"/>
<path style="fill:#eea496; stroke:none;" d="M472 0L472 2L474 2L474 0L472 0z"/>
<path style="fill:#c77066; stroke:none;" d="M418 1L419 2L418 1M4 2L5 3L4 2z"/>
<path style="fill:#eea496; stroke:none;" d="M57 2L58 3L57 2z"/>
<path style="fill:#c77066; stroke:none;" d="M416 2L417 3L416 2z"/>
<path style="fill:#eea496; stroke:none;" d="M417 2L418 3L417 2M434 2L435 3L434 2z"/>
<path style="fill:#c77066; stroke:none;" d="M435 2L436 3L435 2M469 2L470 3L469 2z"/>
<path style="fill:#eea496; stroke:none;" d="M470 2L471 3L470 2z"/>
<path style="fill:#c77066; stroke:none;" d="M6 3L7 4L6 3z"/>
<path style="fill:#eea496; stroke:none;" d="M59 3L60 4L59 3M415 3L416 4L415 3M432 3L433 4L432 3z"/>
<path style="fill:#c77066; stroke:none;" d="M433 3L434 4L433 3z"/>
<path style="fill:#eea496; stroke:none;" d="M468 3L469 4L468 3M8 4L8 5L11 6L8 4M61 4L62 5L61 4M413 4L414 5L413 4M430 4L431 5L430 4z"/>
<path style="fill:#c77066; stroke:none;" d="M431 4L432 5L431 4M465 4L466 5L465 4z"/>
<path style="fill:#eea496; stroke:none;" d="M466 4L467 5L466 4z"/>
<path style="fill:#c77066; stroke:none;" d="M9 5L10 6L9 5z"/>
<path style="fill:#eea496; stroke:none;" d="M63 5L64 6L63 5M411 5L412 6L411 5M428 5L429 6L428 5z"/>
<path style="fill:#c77066; stroke:none;" d="M429 5L430 6L429 5z"/>
<path style="fill:#eea496; stroke:none;" d="M464 5L465 6L464 5M12 6L13 7L12 6z"/>
<path style="fill:#c77066; stroke:none;" d="M65 6L66 7L65 6z"/>
<path style="fill:#eea496; stroke:none;" d="M409 6L410 7L409 6M426 6L427 7L426 6z"/>
<path style="fill:#c77066; stroke:none;" d="M427 6L428 7L427 6M462 6L463 7L462 6M13 7L14 8L13 7z"/>
<path style="fill:#eea496; stroke:none;" d="M14 7L15 8L14 7z"/>
<path style="fill:#c77066; stroke:none;" d="M67 7L68 8L67 7M407 7L408 8L407 7z"/>
<path style="fill:#eea496; stroke:none;" d="M424 7L425 8L424 7z"/>
<path style="fill:#c77066; stroke:none;" d="M425 7L426 8L425 7M460 7L461 8L460 7M15 8L16 9L15 8z"/>
<path style="fill:#eea496; stroke:none;" d="M16 8L17 9L16 8z"/>
<path style="fill:#c77066; stroke:none;" d="M69 8L70 9L69 8M405 8L406 9L405 8z"/>
<path style="fill:#eea496; stroke:none;" d="M422 8L423 9L422 8z"/>
<path style="fill:#c77066; stroke:none;" d="M423 8L424 9L423 8M458 8L459 9L458 8z"/>
<path style="fill:#eea496; stroke:none;" d="M459 8L460 9L459 8z"/>
<path style="fill:#c77066; stroke:none;" d="M17 9L18 10L17 9z"/>
<path style="fill:#eea496; stroke:none;" d="M18 9L19 10L18 9M70 9L71 10L70 9z"/>
<path style="fill:#c77066; stroke:none;" d="M71 9L72 10L71 9M403 9L404 10L403 9z"/>
<path style="fill:#eea496; stroke:none;" d="M421 9L422 10L421 9z"/>
<path style="fill:#c77066; stroke:none;" d="M456 9L457 10L456 9z"/>
<path style="fill:#eea496; stroke:none;" d="M457 9L458 10L457 9z"/>
<path style="fill:#c77066; stroke:none;" d="M19 10L20 11L19 10z"/>
<path style="fill:#eea496; stroke:none;" d="M20 10L21 11L20 10M72 10L73 11L72 10z"/>
<path style="fill:#c77066; stroke:none;" d="M73 10L74 11L73 10M401 10L402 11L401 10z"/>
<path style="fill:#eea496; stroke:none;" d="M419 10L420 11L419 10z"/>
<path style="fill:#c77066; stroke:none;" d="M454 10L455 11L454 10z"/>
<path style="fill:#eea496; stroke:none;" d="M455 10L456 11L455 10z"/>
<path style="fill:#c77066; stroke:none;" d="M21 11L22 12L21 11z"/>
<path style="fill:#eea496; stroke:none;" d="M22 11L23 12L22 11M74 11L75 12L74 11z"/>
<path style="fill:#c77066; stroke:none;" d="M399 11L400 12L399 11z"/>
<path style="fill:#eea496; stroke:none;" d="M400 11L401 12L400 11M417 11L418 12L417 11z"/>
<path style="fill:#c77066; stroke:none;" d="M452 11L453 12L452 11z"/>
<path style="fill:#eea496; stroke:none;" d="M453 11L454 12L453 11z"/>
<path style="fill:#c77066; stroke:none;" d="M23 12L24 13L23 12z"/>
<path style="fill:#eea496; stroke:none;" d="M24 12L25 13L24 12M76 12L77 13L76 12M398 12L399 13L398 12M415 12L416 13L415 12z"/>
<path style="fill:#c77066; stroke:none;" d="M450 12L451 13L450 12z"/>
<path style="fill:#eea496; stroke:none;" d="M451 12L452 13L451 12z"/>
<path style="fill:#c77066; stroke:none;" d="M25 13L26 14L25 13z"/>
<path style="fill:#eea496; stroke:none;" d="M26 13L27 14L26 13M78 13L79 14L78 13M396 13L397 14L396 13M413 13L414 14L413 13z"/>
<path style="fill:#c77066; stroke:none;" d="M414 13L415 14L414 13M448 13L449 14L448 13z"/>
<path style="fill:#eea496; stroke:none;" d="M449 13L450 14L449 13M27 14L28 15L27 14M80 14L81 15L80 14M394 14L395 15L394 14M411 14L412 15L411 14z"/>
<path style="fill:#c77066; stroke:none;" d="M412 14L413 15L412 14M446 14L447 15L446 14z"/>
<path style="fill:#eea496; stroke:none;" d="M447 14L448 15L447 14M29 15L30 16L29 15M82 15L83 16L82 15M392 15L393 16L392 15M409 15L410 16L409 15z"/>
<path style="fill:#c77066; stroke:none;" d="M410 15L411 16L410 15z"/>
<path style="fill:#eea496; stroke:none;" d="M445 15L446 16L445 15z"/>
<path style="fill:#c77066; stroke:none;" d="M30.6667 16.3333L31.3333 16.6667L30.6667 16.3333z"/>
<path style="fill:#eea496; stroke:none;" d="M84 16L85 17L84 16M390 16L391 17L390 16M407 16L408 17L407 16z"/>
<path style="fill:#c77066; stroke:none;" d="M408 16L409 17L408 16M443 16L444 17L443 16M32 17L33 18L32 17z"/>
<path style="fill:#eea496; stroke:none;" d="M33 17L34 18L33 17M86 17L87 18L86 17z"/>
<path style="fill:#c77066; stroke:none;" d="M388 17L389 18L388 17M406 17L407 18L406 17z"/>
<path style="fill:#eea496; stroke:none;" d="M441 17L442 18L441 17z"/>
<path style="fill:#c77066; stroke:none;" d="M34 18L35 19L34 18z"/>
<path style="fill:#eea496; stroke:none;" d="M35 18L36 19L35 18z"/>
<path style="fill:#c77066; stroke:none;" d="M88 18L89 19L88 18M386 18L387 19L386 18z"/>
<path style="fill:#eea496; stroke:none;" d="M403 18L404 19L403 18z"/>
<path style="fill:#c77066; stroke:none;" d="M404 18L405 19L404 18M439 18L440 19L439 18z"/>
<path style="fill:#eea496; stroke:none;" d="M440 18L441 19L440 18M0.666667 19.3333L1.33333 19.6667L0.666667 19.3333z"/>
<path style="fill:#c77066; stroke:none;" d="M2 19L3 20L2 19M36 19L37 20L36 19z"/>
<path style="fill:#eea496; stroke:none;" d="M37 19L38 20L37 19z"/>
<path style="fill:#c77066; stroke:none;" d="M90 19L91 20L90 19M384 19L385 20L384 19z"/>
<path style="fill:#eea496; stroke:none;" d="M401 19L402 20L401 19z"/>
<path style="fill:#c77066; stroke:none;" d="M402 19L403 20L402 19M437 19L438 20L437 19z"/>
<path style="fill:#eea496; stroke:none;" d="M438 19L439 20L438 19M3 20L4 21L3 20z"/>
<path style="fill:#c77066; stroke:none;" d="M38 20L39 21L38 20z"/>
<path style="fill:#eea496; stroke:none;" d="M39 20L40 21L39 20z"/>
<path style="fill:#c77066; stroke:none;" d="M92 20L93 21L92 20M382 20L383 21L382 20z"/>
<path style="fill:#eea496; stroke:none;" d="M399 20L397 21L397 22L399 20z"/>
<path style="fill:#c77066; stroke:none;" d="M400 20L401 21L400 20M435 20L436 21L435 20z"/>
<path style="fill:#eea496; stroke:none;" d="M436 20L437 21L436 20M5 21L6 22L5 21z"/>
<path style="fill:#c77066; stroke:none;" d="M40 21L41 22L40 21z"/>
<path style="fill:#eea496; stroke:none;" d="M41 21L42 22L41 21z"/>
<path style="fill:#c77066; stroke:none;" d="M94 21L95 22L94 21M380 21L381 22L380 21M399 21L400 22L399 21M433 21L434 22L433 21z"/>
<path style="fill:#eea496; stroke:none;" d="M434 21L435 22L434 21M7 22L10 24L10 23L7 22z"/>
<path style="fill:#c77066; stroke:none;" d="M8 22L9 23L8 22M42 22L43 23L42 22z"/>
<path style="fill:#eea496; stroke:none;" d="M43 22L44 23L43 22z"/>
<path style="fill:#c77066; stroke:none;" d="M378 22L379 23L378 22z"/>
<path style="fill:#eea496; stroke:none;" d="M379 22L380 23L379 22M396 22L397 23L396 22z"/>
<path style="fill:#c77066; stroke:none;" d="M431 22L432 23L431 22z"/>
<path style="fill:#eea496; stroke:none;" d="M432 22L433 23L432 22z"/>
<path style="fill:#c77066; stroke:none;" d="M10 23L11 24L10 23M44 23L45 24L44 23z"/>
<path style="fill:#eea496; stroke:none;" d="M97 23L98 24L97 23M377 23L378 24L377 23M394 23L395 24L394 23z"/>
<path style="fill:#c77066; stroke:none;" d="M395 23L396 24L395 23M429 23L430 24L429 23z"/>
<path style="fill:#eea496; stroke:none;" d="M430 23L431 24L430 23z"/>
<path style="fill:#c77066; stroke:none;" d="M11 24L12 25L11 24M45.6667 24.3333L46.3333 24.6667L45.6667 24.3333z"/>
<path style="fill:#eea496; stroke:none;" d="M47 24L48 25L47 24M99 24L100 25L99 24M375 24L376 25L375 24M392 24L393 25L392 24z"/>
<path style="fill:#c77066; stroke:none;" d="M393 24L394 25L393 24M427 24L428 25L427 24z"/>
<path style="fill:#eea496; stroke:none;" d="M428 24L429 25L428 24M12 25L13 26L12 25z"/>
<path style="fill:#c77066; stroke:none;" d="M13 25L14 26L13 25M48 25L49 26L48 25z"/>
<path style="fill:#eea496; stroke:none;" d="M101 25L102 26L101 25M373 25L374 26L373 25M390 25L391 26L390 25z"/>
<path style="fill:#c77066; stroke:none;" d="M391.667 25.3333L392.333 25.6667L391.667 25.3333M425 25L426 26L425 25z"/>
<path style="fill:#eea496; stroke:none;" d="M426 25L427 26L426 25M14 26L15 27L14 26z"/>
<path style="fill:#c77066; stroke:none;" d="M15 26L16 27L15 26z"/>
<path style="fill:#eea496; stroke:none;" d="M50 26L51 27L50 26M103 26L104 27L103 26M371 26L372 27L371 26M388 26L389 27L388 26z"/>
<path style="fill:#c77066; stroke:none;" d="M389 26L390 27L389 26M420 26L421 27L420 26z"/>
<path style="fill:#eea496; stroke:none;" d="M424.667 26.3333L425.333 26.6667L424.667 26.3333M16 27L17 28L16 27z"/>
<path style="fill:#c77066; stroke:none;" d="M17 27L18 28L17 27z"/>
<path style="fill:#eea496; stroke:none;" d="M52 27L53 28L52 27M105 27L106 28L105 27M369 27L370 28L369 27z"/>
<path style="fill:#c77066; stroke:none;" d="M387 27L388 28L387 27z"/>
<path style="fill:#eea496; stroke:none;" d="M422 27L423 28L422 27M0.666667 28.3333L1.33333 28.6667L0.666667 28.3333M18 28L19 29L18 28z"/>
<path style="fill:#c77066; stroke:none;" d="M19 28L20 29L19 28M53 28L54 29L53 28z"/>
<path style="fill:#eea496; stroke:none;" d="M54 28L55 29L54 28z"/>
<path style="fill:#c77066; stroke:none;" d="M107 28L108 29L107 28M367 28L368 29L367 28z"/>
<path style="fill:#eea496; stroke:none;" d="M384 28L385 29L384 28z"/>
<path style="fill:#c77066; stroke:none;" d="M385 28L386 29L385 28M420 28L421 29L420 28z"/>
<path style="fill:#2e2d71; stroke:none;" d="M0 29L0 83L104 83L85 72.5756L32 44.7523L0 29z"/>
<path style="fill:#eea496; stroke:none;" d="M3 29L4 30L3 29M20 29L21 30L20 29z"/>
<path style="fill:#c77066; stroke:none;" d="M21 29L22 30L21 29M55 29L56 30L55 29z"/>
<path style="fill:#eea496; stroke:none;" d="M56 29L56 30L59 31L56 29z"/>
<path style="fill:#c77066; stroke:none;" d="M109 29L110 30L109 29M365 29L366 30L365 29z"/>
<path style="fill:#eea496; stroke:none;" d="M382 29L379 31L379 32L383 30L382 29z"/>
<path style="fill:#c77066; stroke:none;" d="M383.667 29.3333L384.333 29.6667L383.667 29.3333M418 29L419 30L418 29z"/>
<path style="fill:#eea496; stroke:none;" d="M419 29L420 30L419 29z"/>
<path style="fill:#2e2d71; stroke:none;" d="M371 82L371 83L474 83L474 29L371 82z"/>
<path style="fill:#eea496; stroke:none;" d="M22 30L23 31L22 30z"/>
<path style="fill:#c77066; stroke:none;" d="M57 30L58 31L57 30M111 30L112 31L111 30M363 30L364 31L363 30M382 30L383 31L382 30M416 30L417 31L416 30z"/>
<path style="fill:#eea496; stroke:none;" d="M417 30L418 31L417 30M469 30L470 31L469 30z"/>
<path style="fill:#c77066; stroke:none;" d="M470 30L471 31L470 30M6 31L7 32L6 31z"/>
<path style="fill:#eea496; stroke:none;" d="M7 31L8 32L7 31z"/>
<path style="fill:#c77066; stroke:none;" d="M24.6667 31.3333L25.3333 31.6667L24.6667 31.3333M59 31L60 32L59 31z"/>
<path style="fill:#eea496; stroke:none;" d="M60 31L61 32L60 31M112 31L113 32L112 31z"/>
<path style="fill:#c77066; stroke:none;" d="M113 31L114 32L113 31M361 31L362 32L361 31M380 31L381 32L380 31M414 31L415 32L414 31z"/>
<path style="fill:#eea496; stroke:none;" d="M415 31L416 32L415 31M467 31L468 32L467 31z"/>
<path style="fill:#c77066; stroke:none;" d="M468 31L469 32L468 31M8 32L9 33L8 32z"/>
<path style="fill:#eea496; stroke:none;" d="M9 32L10 33L9 32M26 32L27 33L26 32z"/>
<path style="fill:#c77066; stroke:none;" d="M61 32L64 34L64 33L61 32z"/>
<path style="fill:#eea496; stroke:none;" d="M62 32L63 33L62 32M114 32L115 33L114 32z"/>
<path style="fill:#c77066; stroke:none;" d="M115 32L116 33L115 32M359 32L360 33L359 32z"/>
<path style="fill:#eea496; stroke:none;" d="M377 32L378 33L377 32z"/>
<path style="fill:#c77066; stroke:none;" d="M378 32L379 33L378 32M412 32L413 33L412 32z"/>
<path style="fill:#eea496; stroke:none;" d="M413 32L414 33L413 32M465 32L466 33L465 32z"/>
<path style="fill:#c77066; stroke:none;" d="M466 32L467 33L466 32M10 33L11 34L10 33z"/>
<path style="fill:#eea496; stroke:none;" d="M28 33L29 34L28 33M116 33L117 34L116 33z"/>
<path style="fill:#c77066; stroke:none;" d="M357 33L358 34L357 33z"/>
<path style="fill:#eea496; stroke:none;" d="M358 33L359 34L358 33M375 33L376 34L375 33z"/>
<path style="fill:#c77066; stroke:none;" d="M376 33L377 34L376 33M410 33L411 34L410 33z"/>
<path style="fill:#eea496; stroke:none;" d="M411 33L412 34L411 33z"/>
<path style="fill:#c77066; stroke:none;" d="M464 33L465 34L464 33M12 34L13 35L12 34z"/>
<path style="fill:#eea496; stroke:none;" d="M29 34L30 35L29 34z"/>
<path style="fill:#c77066; stroke:none;" d="M30 34L31 35L30 34z"/>
<path style="fill:#eea496; stroke:none;" d="M65 34L66 35L65 34M118 34L119 35L118 34M356 34L357 35L356 34M373 34L374 35L373 34z"/>
<path style="fill:#c77066; stroke:none;" d="M374 34L375 35L374 34M408 34L409 35L408 34z"/>
<path style="fill:#eea496; stroke:none;" d="M409 34L410 35L409 34z"/>
<path style="fill:#c77066; stroke:none;" d="M462 34L463 35L462 34M14 35L15 36L14 35z"/>
<path style="fill:#eea496; stroke:none;" d="M31 35L32 36L31 35z"/>
<path style="fill:#c77066; stroke:none;" d="M32 35L33 36L32 35M67 35L68 36L67 35z"/>
<path style="fill:#eea496; stroke:none;" d="M120 35L121 36L120 35M354 35L355 36L354 35M371 35L372 36L371 35z"/>
<path style="fill:#c77066; stroke:none;" d="M372 35L373 36L372 35M406 35L407 36L406 35z"/>
<path style="fill:#eea496; stroke:none;" d="M407 35L408 36L407 35z"/>
<path style="fill:#c77066; stroke:none;" d="M460 35L461 36L460 35z"/>
<path style="fill:#eea496; stroke:none;" d="M16.6667 36.3333L17.3333 36.6667L16.6667 36.3333M33 36L34 37L33 36z"/>
<path style="fill:#c77066; stroke:none;" d="M34 36L35 37L34 36M69 36L71 38L69 36z"/>
<path style="fill:#eea496; stroke:none;" d="M70 36L71 37L70 36M122 36L123 37L122 36M352 36L353 37L352 36M369 36L370 37L369 36z"/>
<path style="fill:#c77066; stroke:none;" d="M370 36L371 37L370 36z"/>
<path style="fill:#eea496; stroke:none;" d="M405 36L406 37L405 36z"/>
<path style="fill:#c77066; stroke:none;" d="M458 36L459 37L458 36z"/>
<path style="fill:#eea496; stroke:none;" d="M18 37L19 38L18 37M35 37L36 38L35 37z"/>
<path style="fill:#c77066; stroke:none;" d="M36 37L37 38L36 37z"/>
<path style="fill:#eea496; stroke:none;" d="M71 37L72 38L71 37M124 37L125 38L124 37z"/>
<path style="fill:#c77066; stroke:none;" d="M350 37L351 38L350 37z"/>
<path style="fill:#eea496; stroke:none;" d="M367 37L368 38L367 37z"/>
<path style="fill:#c77066; stroke:none;" d="M368 37L369 38L368 37z"/>
<path style="fill:#eea496; stroke:none;" d="M403 37L404 38L403 37M456 37L457 38L456 37M20 38L21 39L20 38M37 38L40 40L40 39L37 38z"/>
<path style="fill:#c77066; stroke:none;" d="M38 38L39 39L38 38M72 38L73 39L72 38z"/>
<path style="fill:#eea496; stroke:none;" d="M73 38L74 39L73 38z"/>
<path style="fill:#c77066; stroke:none;" d="M126 38L127 39L126 38M348 38L349 39L348 38z"/>
<path style="fill:#eea496; stroke:none;" d="M365 38L366 39L365 38z"/>
<path style="fill:#c77066; stroke:none;" d="M366 38L367 39L366 38z"/>
<path style="fill:#eea496; stroke:none;" d="M401 38L402 39L401 38M454 38L455 39L454 38M22 39L23 40L22 39z"/>
<path style="fill:#c77066; stroke:none;" d="M40 39L41 40L40 39M74 39L75 40L74 39z"/>
<path style="fill:#eea496; stroke:none;" d="M75 39L76 40L75 39z"/>
<path style="fill:#c77066; stroke:none;" d="M128 39L129 40L128 39M346 39L347 40L346 39z"/>
<path style="fill:#eea496; stroke:none;" d="M363 39L364 40L363 39z"/>
<path style="fill:#c77066; stroke:none;" d="M364 39L365 40L364 39M399 39L400 40L399 39z"/>
<path style="fill:#eea496; stroke:none;" d="M452 39L453 40L452 39M24 40L25 41L24 40M41 40L42 41L41 40z"/>
<path style="fill:#c77066; stroke:none;" d="M42 40L43 41L42 40M76 40L77 41L76 40z"/>
<path style="fill:#eea496; stroke:none;" d="M77 40L78 41L77 40z"/>
<path style="fill:#c77066; stroke:none;" d="M130 40L131 41L130 40M344 40L345 41L344 40z"/>
<path style="fill:#eea496; stroke:none;" d="M361 40L362 41L361 40z"/>
<path style="fill:#c77066; stroke:none;" d="M362 40L363 41L362 40M397 40L398 41L397 40z"/>
<path style="fill:#eea496; stroke:none;" d="M398 40L399 41L398 40M450 40L451 41L450 40z"/>
<path style="fill:#c77066; stroke:none;" d="M25 41L26 42L25 41z"/>
<path style="fill:#eea496; stroke:none;" d="M26 41L27 42L26 41M43 41L44 42L43 41z"/>
<path style="fill:#c77066; stroke:none;" d="M44 41L45 42L44 41M78 41L79 42L78 41z"/>
<path style="fill:#eea496; stroke:none;" d="M79 41L80 42L79 41z"/>
<path style="fill:#c77066; stroke:none;" d="M132 41L133 42L132 41M342 41L343 42L342 41M360.667 41.3333L361.333 41.6667L360.667 41.3333M395 41L396 42L395 41z"/>
<path style="fill:#eea496; stroke:none;" d="M396 41L397 42L396 41M448 41L449 42L448 41z"/>
<path style="fill:#c77066; stroke:none;" d="M27 42L28 43L27 42z"/>
<path style="fill:#eea496; stroke:none;" d="M45 42L48 44L48 43L45 42z"/>
<path style="fill:#c77066; stroke:none;" d="M46 42L47 43L46 42M80 42L81 43L80 42z"/>
<path style="fill:#eea496; stroke:none;" d="M81 42L82 43L81 42z"/>
<path style="fill:#c77066; stroke:none;" d="M134 42L135 43L134 42M340 42L341 43L340 42z"/>
<path style="fill:#eea496; stroke:none;" d="M358 42L359 43L358 42z"/>
<path style="fill:#c77066; stroke:none;" d="M359 42L360 43L359 42M393 42L394 43L393 42z"/>
<path style="fill:#eea496; stroke:none;" d="M394 42L395 43L394 42M446 42L447 43L446 42z"/>
<path style="fill:#c77066; stroke:none;" d="M447 42L448 43L447 42M29 43L30 44L29 43M82 43L83 44L82 43z"/>
<path style="fill:#eea496; stroke:none;" d="M83 43L84 44L83 43M135 43L136 44L135 43z"/>
<path style="fill:#c77066; stroke:none;" d="M136 43L137 44L136 43M338 43L339 44L338 43z"/>
<path style="fill:#eea496; stroke:none;" d="M339 43L340 44L339 43M356 43L357 44L356 43z"/>
<path style="fill:#c77066; stroke:none;" d="M357 43L358 44L357 43M391 43L392 44L391 43z"/>
<path style="fill:#eea496; stroke:none;" d="M392.667 43.3333L393.333 43.6667L392.667 43.3333z"/>
<path style="fill:#c77066; stroke:none;" d="M445 43L446 44L445 43M31 44L32 45L31 44z"/>
<path style="fill:#eea496; stroke:none;" d="M48 44L49 45L48 44z"/>
<path style="fill:#c77066; stroke:none;" d="M49 44L50 45L49 44M84 44L85 45L84 44z"/>
<path style="fill:#eea496; stroke:none;" d="M85 44L86 45L85 44M137 44L138 45L137 44M337 44L338 45L337 44M354 44L355 45L354 44z"/>
<path style="fill:#c77066; stroke:none;" d="M355 44L356 45L355 44M389 44L390 45L389 44z"/>
<path style="fill:#eea496; stroke:none;" d="M390 44L391 45L390 44z"/>
<path style="fill:#c77066; stroke:none;" d="M443 44L444 45L443 44M33 45L34 46L33 45M51 45L52 46L51 45M86 45L87 46L86 45z"/>
<path style="fill:#eea496; stroke:none;" d="M87 45L88 46L87 45M139 45L140 46L139 45M352 45L353 46L352 45z"/>
<path style="fill:#c77066; stroke:none;" d="M353 45L354 46L353 45M387 45L388 46L387 45z"/>
<path style="fill:#eea496; stroke:none;" d="M388 45L389 46L388 45z"/>
<path style="fill:#c77066; stroke:none;" d="M441 45L442 46L441 45z"/>
<path style="fill:#eea496; stroke:none;" d="M35 46L36 47L35 46M52 46L53 47L52 46z"/>
<path style="fill:#c77066; stroke:none;" d="M53 46L54 47L53 46z"/>
<path style="fill:#eea496; stroke:none;" d="M88 46L88 47L92 48L92 47L88 46M141 46L142 47L141 46M333 46L334 47L333 46M350 46L351 47L350 46z"/>
<path style="fill:#c77066; stroke:none;" d="M351 46L352 47L351 46M385 46L386 47L385 46z"/>
<path style="fill:#eea496; stroke:none;" d="M386 46L387 47L386 46M439 46L440 47L439 46M37 47L38 48L37 47M54 47L55 48L54 47z"/>
<path style="fill:#c77066; stroke:none;" d="M55 47L56 48L55 47M89 47L90 48L89 47z"/>
<path style="fill:#eea496; stroke:none;" d="M143 47L144 48L143 47M331 47L332 48L331 47M348 47L349 48L348 47z"/>
<path style="fill:#c77066; stroke:none;" d="M349 47L350 48L349 47z"/>
<path style="fill:#eea496; stroke:none;" d="M384.667 47.3333L385.333 47.6667L384.667 47.3333M437 47L438 48L437 47M39 48L40 49L39 48M56 48L57 49L56 48z"/>
<path style="fill:#c77066; stroke:none;" d="M57 48L58 49L57 48z"/>
<path style="fill:#eea496; stroke:none;" d="M92 48L93 49L92 48z"/>
<path style="fill:#c77066; stroke:none;" d="M145 48L146 49L145 48z"/>
<path style="fill:#eea496; stroke:none;" d="M329 48L330 49L329 48M346 48L347 49L346 48z"/>
<path style="fill:#c77066; stroke:none;" d="M347 48L348 49L347 48z"/>
<path style="fill:#eea496; stroke:none;" d="M382 48L383 49L382 48M435 48L436 49L435 48M41 49L42 50L41 49M58 49L59 50L58 49z"/>
<path style="fill:#c77066; stroke:none;" d="M59 49L60 50L59 49z"/>
<path style="fill:#eea496; stroke:none;" d="M94 49L95 50L94 49z"/>
<path style="fill:#c77066; stroke:none;" d="M147 49L148 50L147 49z"/>
<path style="fill:#eea496; stroke:none;" d="M327 49L328 50L327 49M344 49L345 50L344 49z"/>
<path style="fill:#c77066; stroke:none;" d="M345 49L346 50L345 49M380 49L381 50L380 49z"/>
<path style="fill:#eea496; stroke:none;" d="M381 49L382 50L381 49M433 49L434 50L433 49M43 50L44 51L43 50M60.3333 50.6667L60.6667 51.3333L60.3333 50.6667z"/>
<path style="fill:#c77066; stroke:none;" d="M61 50L62 51L61 50M95 50L96 51L95 50z"/>
<path style="fill:#eea496; stroke:none;" d="M96 50L97 51L96 50z"/>
<path style="fill:#c77066; stroke:none;" d="M149 50L150 51L149 50M325 50L326 51L325 50z"/>
<path style="fill:#eea496; stroke:none;" d="M342 50L340 51L340 52L342 50z"/>
<path style="fill:#c77066; stroke:none;" d="M343.667 50.3333L344.333 50.6667L343.667 50.3333M378 50L379 51L378 50z"/>
<path style="fill:#eea496; stroke:none;" d="M431 50L432 51L431 50z"/>
<path style="fill:#c77066; stroke:none;" d="M44 51L45 52L44 51z"/>
<path style="fill:#eea496; stroke:none;" d="M62 51L63 52L62 51z"/>
<path style="fill:#c77066; stroke:none;" d="M63 51L64 52L63 51M97 51L98 52L97 51z"/>
<path style="fill:#eea496; stroke:none;" d="M98 51L99 52L98 51M150 51L151 52L150 51z"/>
<path style="fill:#c77066; stroke:none;" d="M151 51L152 52L151 51M323 51L324 52L323 51M342 51L343 52L342 51M376 51L377 52L376 51z"/>
<path style="fill:#eea496; stroke:none;" d="M377 51L378 52L377 51M429 51L430 52L429 51z"/>
<path style="fill:#c77066; stroke:none;" d="M46 52L47 53L46 52z"/>
<path style="fill:#eea496; stroke:none;" d="M64 52L65 53L64 52z"/>
<path style="fill:#c77066; stroke:none;" d="M65 52L66 53L65 52M99 52L100 53L99 52z"/>
<path style="fill:#eea496; stroke:none;" d="M100 52L101 53L100 52z"/>
<path style="fill:#c77066; stroke:none;" d="M153 52L154 53L153 52M321 52L322 53L321 52z"/>
<path style="fill:#eea496; stroke:none;" d="M339 52L340 53L339 52z"/>
<path style="fill:#c77066; stroke:none;" d="M374 52L375 53L374 52z"/>
<path style="fill:#eea496; stroke:none;" d="M375 52L376 53L375 52z"/>
<path style="fill:#c77066; stroke:none;" d="M48 53L49 54L48 53z"/>
<path style="fill:#eea496; stroke:none;" d="M49 53L50 54L49 53M66 53L67 54L66 53z"/>
<path style="fill:#c77066; stroke:none;" d="M101 53L102 54L101 53z"/>
<path style="fill:#eea496; stroke:none;" d="M102 53L103 54L102 53M337 53L338 54L337 53z"/>
<path style="fill:#c77066; stroke:none;" d="M338 53L339 54L338 53M372 53L373 54L372 53z"/>
<path style="fill:#eea496; stroke:none;" d="M373 53L374 54L373 53z"/>
<path style="fill:#c77066; stroke:none;" d="M426 53L427 54L426 53M50 54L51 55L50 54M68 54L69 55L68 54M103 54L104 55L103 54z"/>
<path style="fill:#eea496; stroke:none;" d="M104 54L105 55L104 54M156 54L157 55L156 54z"/>
<path style="fill:#c77066; stroke:none;" d="M317 54L318 55L317 54z"/>
<path style="fill:#eea496; stroke:none;" d="M318 54L319 55L318 54M335 54L336 55L335 54z"/>
<path style="fill:#c77066; stroke:none;" d="M370 54L371 55L370 54z"/>
<path style="fill:#eea496; stroke:none;" d="M371 54L372 55L371 54z"/>
<path style="fill:#c77066; stroke:none;" d="M424 54L425 55L424 54M52 55L53 56L52 55M70 55L71 56L70 55M105 55L106 56L105 55z"/>
<path style="fill:#eea496; stroke:none;" d="M106 55L107 56L106 55M158 55L159 56L158 55z"/>
<path style="fill:#c77066; stroke:none;" d="M315 55L316 56L315 55z"/>
<path style="fill:#eea496; stroke:none;" d="M316 55L317 56L316 55M333 55L334 56L333 55z"/>
<path style="fill:#c77066; stroke:none;" d="M334 55L335 56L334 55M368 55L369 56L368 55z"/>
<path style="fill:#eea496; stroke:none;" d="M369 55L370 56L369 55z"/>
<path style="fill:#c77066; stroke:none;" d="M422 55L423 56L422 55M54 56L55 57L54 56M72 56L73 57L72 56M107 56L107 57L112 59L112 58L107 56z"/>
<path style="fill:#eea496; stroke:none;" d="M108 56L109 57L108 56M160 56L161 57L160 56M314 56L315 57L314 56M331 56L332 57L331 56z"/>
<path style="fill:#c77066; stroke:none;" d="M332 56L333 57L332 56M366 56L367 57L366 56z"/>
<path style="fill:#eea496; stroke:none;" d="M367 56L368 57L367 56M420 56L421 57L420 56z"/>
<path style="fill:#c77066; stroke:none;" d="M56 57L57 58L56 57z"/>
<path style="fill:#eea496; stroke:none;" d="M73 57L74 58L73 57z"/>
<path style="fill:#c77066; stroke:none;" d="M74 57L75 58L74 57z"/>
<path style="fill:#eea496; stroke:none;" d="M110 57L111 58L110 57M162 57L163 58L162 57M312 57L313 58L312 57M329 57L330 58L329 57z"/>
<path style="fill:#c77066; stroke:none;" d="M330 57L331 58L330 57z"/>
<path style="fill:#eea496; stroke:none;" d="M365 57L366 58L365 57M418 57L419 58L418 57M58 58L59 59L58 58M75 58L76 59L75 58z"/>
<path style="fill:#c77066; stroke:none;" d="M76 58L77 59L76 58z"/>
<path style="fill:#eea496; stroke:none;" d="M164 58L165 59L164 58M310 58L311 59L310 58M327 58L328 59L327 58z"/>
<path style="fill:#c77066; stroke:none;" d="M328 58L329 59L328 58z"/>
<path style="fill:#eea496; stroke:none;" d="M363 58L364 59L363 58M416 58L417 59L416 58M60 59L61 60L60 59M77 59L78 60L77 59z"/>
<path style="fill:#c77066; stroke:none;" d="M78 59L79 60L78 59M112 59L113 60L112 59z"/>
<path style="fill:#eea496; stroke:none;" d="M113 59L114 60L113 59M166 59L167 60L166 59M308 59L309 60L308 59M325 59L326 60L325 59z"/>
<path style="fill:#c77066; stroke:none;" d="M326 59L327 60L326 59z"/>
<path style="fill:#eea496; stroke:none;" d="M361 59L362 60L361 59M414 59L415 60L414 59M62 60L63 61L62 60M79 60L80 61L79 60z"/>
<path style="fill:#c77066; stroke:none;" d="M114 60L115 61L114 60z"/>
<path style="fill:#eea496; stroke:none;" d="M115 60L116 61L115 60z"/>
<path style="fill:#c77066; stroke:none;" d="M168 60L169 61L168 60M306 60L307 61L306 60z"/>
<path style="fill:#eea496; stroke:none;" d="M323 60L324 61L323 60z"/>
<path style="fill:#c77066; stroke:none;" d="M324 60L325 61L324 60M357 62L360 61L357 62z"/>
<path style="fill:#eea496; stroke:none;" d="M412 60L413 61L412 60M64 61L65 62L64 61M81 61L82 62L81 61z"/>
<path style="fill:#c77066; stroke:none;" d="M82 61L83 62L82 61M116 61L117 62L116 61z"/>
<path style="fill:#eea496; stroke:none;" d="M117 61L118 62L117 61z"/>
<path style="fill:#c77066; stroke:none;" d="M170 61L171 62L170 61M304 61L305 62L304 61z"/>
<path style="fill:#eea496; stroke:none;" d="M321.667 61.3333L322.333 61.6667L321.667 61.3333M358 61L359 62L358 61M410 61L411 62L410 61z"/>
<path style="fill:#c77066; stroke:none;" d="M65 62L66 63L65 62z"/>
<path style="fill:#eea496; stroke:none;" d="M66 62L67 63L66 62M83 62L84 63L83 62z"/>
<path style="fill:#c77066; stroke:none;" d="M118 62L119 63L118 62z"/>
<path style="fill:#eea496; stroke:none;" d="M119 62L120 63L119 62z"/>
<path style="fill:#c77066; stroke:none;" d="M172 62L173 63L172 62M302 62L303 63L302 62z"/>
<path style="fill:#eea496; stroke:none;" d="M320 62L321 63L320 62z"/>
<path style="fill:#c77066; stroke:none;" d="M355 62L356 63L355 62z"/>
<path style="fill:#eea496; stroke:none;" d="M356 62L357 63L356 62z"/>
<path style="fill:#c77066; stroke:none;" d="M409 62L410 63L409 62M67 63L68 64L67 63z"/>
<path style="fill:#eea496; stroke:none;" d="M68 63L69 64L68 63M85 63L86 64L85 63z"/>
<path style="fill:#c77066; stroke:none;" d="M86 63L87 64L86 63M120 63L121 64L120 63z"/>
<path style="fill:#eea496; stroke:none;" d="M121 63L122 64L121 63z"/>
<path style="fill:#c77066; stroke:none;" d="M174 63L175 64L174 63M300 63L301 64L300 63z"/>
<path style="fill:#eea496; stroke:none;" d="M318 63L319 64L318 63z"/>
<path style="fill:#c77066; stroke:none;" d="M319 63L320 64L319 63M353 63L354 64L353 63z"/>
<path style="fill:#eea496; stroke:none;" d="M354 63L355 64L354 63M406 63L407 64L406 63z"/>
<path style="fill:#c77066; stroke:none;" d="M407 63L408 64L407 63M69 64L70 65L69 64z"/>
<path style="fill:#eea496; stroke:none;" d="M87 64L88 65L87 64z"/>
<path style="fill:#c77066; stroke:none;" d="M88 64L89 65L88 64M122 64L123 65L122 64z"/>
<path style="fill:#eea496; stroke:none;" d="M123 64L124 65L123 64M316 64L317 65L316 64z"/>
<path style="fill:#c77066; stroke:none;" d="M351 64L352 65L351 64z"/>
<path style="fill:#eea496; stroke:none;" d="M352 64L353 65L352 64z"/>
<path style="fill:#c77066; stroke:none;" d="M405 64L406 65L405 64M71 65L72 66L71 65M89 65L90 66L89 65M124 65L125 66L124 65z"/>
<path style="fill:#eea496; stroke:none;" d="M177 65L178 66L177 65M297 65L298 66L297 65M314 65L315 66L314 65z"/>
<path style="fill:#c77066; stroke:none;" d="M349 65L350 66L349 65z"/>
<path style="fill:#eea496; stroke:none;" d="M350 65L351 66L350 65z"/>
<path style="fill:#c77066; stroke:none;" d="M403 65L404 66L403 65M73 66L74 67L73 66z"/>
<path style="fill:#eea496; stroke:none;" d="M90 66L91 67L90 66z"/>
<path style="fill:#c77066; stroke:none;" d="M91 66L92 67L91 66M126 66L127 67L126 66z"/>
<path style="fill:#eea496; stroke:none;" d="M179 66L180 67L179 66z"/>
<path style="fill:#c77066; stroke:none;" d="M294 66L295 67L294 66z"/>
<path style="fill:#eea496; stroke:none;" d="M295 66L296 67L295 66M312 66L313 67L312 66z"/>
<path style="fill:#c77066; stroke:none;" d="M313 66L314 67L313 66M347 66L348 67L347 66z"/>
<path style="fill:#eea496; stroke:none;" d="M348 66L349 67L348 66z"/>
<path style="fill:#c77066; stroke:none;" d="M401 66L402 67L401 66z"/>
<path style="fill:#eea496; stroke:none;" d="M75 67L76 68L75 67M92 67L93 68L92 67z"/>
<path style="fill:#c77066; stroke:none;" d="M93 67L94 68L93 67z"/>
<path style="fill:#eea496; stroke:none;" d="M128 67L128 68L133 70L133 69L128 67M181 67L182 68L181 67M293 67L294 68L293 67M310 67L311 68L310 67z"/>
<path style="fill:#c77066; stroke:none;" d="M311 67L312 68L311 67z"/>
<path style="fill:#eea496; stroke:none;" d="M346 67L347 68L346 67z"/>
<path style="fill:#c77066; stroke:none;" d="M399 67L400 68L399 67z"/>
<path style="fill:#eea496; stroke:none;" d="M77 68L78 69L77 68M94 68L95 69L94 68z"/>
<path style="fill:#c77066; stroke:none;" d="M95 68L96 69L95 68M129 68L130 69L129 68z"/>
<path style="fill:#eea496; stroke:none;" d="M183 68L184 69L183 68M291 68L292 69L291 68M308 68L309 69L308 68z"/>
<path style="fill:#c77066; stroke:none;" d="M309 68L310 69L309 68z"/>
<path style="fill:#eea496; stroke:none;" d="M344 68L345 69L344 68M397 68L398 69L397 68M79 69L80 70L79 69M96 69L97 70L96 69z"/>
<path style="fill:#c77066; stroke:none;" d="M97 69L98 70L97 69M131 69L132 70L131 69M185 69L186 70L185 69z"/>
<path style="fill:#eea496; stroke:none;" d="M289 69L290 70L289 69M306 69L307 70L306 69z"/>
<path style="fill:#c77066; stroke:none;" d="M307 69L308 70L307 69M342 69L343 70L342 69z"/>
<path style="fill:#eea496; stroke:none;" d="M343 69L344 70L343 69M395 69L396 70L395 69M81 70L82 71L81 70M98 70L99 71L98 70z"/>
<path style="fill:#c77066; stroke:none;" d="M99 70L100 71L99 70M133 70L134 71L133 70z"/>
<path style="fill:#eea496; stroke:none;" d="M134 70L135 71L134 70z"/>
<path style="fill:#c77066; stroke:none;" d="M187 70L188 71L187 70M287 70L288 71L287 70M305 70L306 71L305 70z"/>
<path style="fill:#eea496; stroke:none;" d="M340 70L341 71L340 70M393 70L394 71L393 70M83 71L84 72L83 71M100 71L101 72L100 71z"/>
<path style="fill:#c77066; stroke:none;" d="M101 71L102 72L101 71M135 71L136 72L135 71z"/>
<path style="fill:#eea496; stroke:none;" d="M136 71L137 72L136 71z"/>
<path style="fill:#c77066; stroke:none;" d="M189 71L190 72L189 71M285 71L286 72L285 71z"/>
<path style="fill:#eea496; stroke:none;" d="M301 73L304 72L301 73z"/>
<path style="fill:#c77066; stroke:none;" d="M337 71L336 73L337 71z"/>
<path style="fill:#eea496; stroke:none;" d="M338.667 71.3333L339.333 71.6667L338.667 71.3333M391 71L392 72L391 71z"/>
<path style="fill:#c77066; stroke:none;" d="M84 72L85 73L84 72z"/>
<path style="fill:#eea496; stroke:none;" d="M85 72L86 73L85 72M102 72L103 73L102 72z"/>
<path style="fill:#c77066; stroke:none;" d="M103 72L104 73L103 72M137 72L138 73L137 72z"/>
<path style="fill:#eea496; stroke:none;" d="M138 72L139 73L138 72M190 72L191 73L190 72z"/>
<path style="fill:#c77066; stroke:none;" d="M191 72L192 73L191 72M283 72L284 73L283 72M302 72L303 73L302 72z"/>
<path style="fill:#eea496; stroke:none;" d="M337 72L338 73L337 72M389 72L390 73L389 72z"/>
<path style="fill:#c77066; stroke:none;" d="M86 73L87 74L86 73z"/>
<path style="fill:#eea496; stroke:none;" d="M104 73L105 74L104 73z"/>
<path style="fill:#c77066; stroke:none;" d="M105 73L106 74L105 73M139 73L140 74L139 73z"/>
<path style="fill:#eea496; stroke:none;" d="M140 73L141 74L140 73z"/>
<path style="fill:#c77066; stroke:none;" d="M193 73L194 74L193 73M281 73L282 74L281 73z"/>
<path style="fill:#eea496; stroke:none;" d="M299 73L300 74L299 73z"/>
<path style="fill:#c77066; stroke:none;" d="M334 73L335 74L334 73z"/>
<path style="fill:#eea496; stroke:none;" d="M335 73L336 74L335 73z"/>
<path style="fill:#c77066; stroke:none;" d="M388 73L389 74L388 73M88 74L89 75L88 74z"/>
<path style="fill:#eea496; stroke:none;" d="M89 74L90 75L89 74M106 74L107 75L106 74z"/>
<path style="fill:#c77066; stroke:none;" d="M141 74L144 76L144 75L141 74z"/>
<path style="fill:#eea496; stroke:none;" d="M142 74L143 75L142 74z"/>
<path style="fill:#c77066; stroke:none;" d="M195 74L196 75L195 74M279 74L280 75L279 74z"/>
<path style="fill:#eea496; stroke:none;" d="M297 74L298 75L297 74z"/>
<path style="fill:#c77066; stroke:none;" d="M298 74L299 75L298 74M332 74L333 75L332 74z"/>
<path style="fill:#eea496; stroke:none;" d="M333 74L334 75L333 74z"/>
<path style="fill:#c77066; stroke:none;" d="M386 74L387 75L386 74M90 75L91 76L90 75z"/>
<path style="fill:#eea496; stroke:none;" d="M108 75L109 76L108 75M144 75L145 76L144 75M196 75L197 76L196 75z"/>
<path style="fill:#c77066; stroke:none;" d="M197 75L198 76L197 75M277 75L278 76L277 75z"/>
<path style="fill:#eea496; stroke:none;" d="M278 75L279 76L278 75M293 77L296 76L293 77z"/>
<path style="fill:#c77066; stroke:none;" d="M296 75L297 76L296 75M330 75L331 76L330 75z"/>
<path style="fill:#eea496; stroke:none;" d="M331 75L332 76L331 75z"/>
<path style="fill:#c77066; stroke:none;" d="M384 75L385 76L384 75M92 76L93 77L92 76z"/>
<path style="fill:#eea496; stroke:none;" d="M110 76L111 77L110 76z"/>
<path style="fill:#c77066; stroke:none;" d="M145 76L146 77L145 76z"/>
<path style="fill:#eea496; stroke:none;" d="M146 76L147 77L146 76z"/>
<path style="fill:#c77066; stroke:none;" d="M294 76L295 77L294 76M328 76L329 77L328 76z"/>
<path style="fill:#eea496; stroke:none;" d="M329 76L330 77L329 76z"/>
<path style="fill:#c77066; stroke:none;" d="M382 76L383 77L382 76M94 77L95 78L94 77z"/>
<path style="fill:#eea496; stroke:none;" d="M111 77L112 78L111 77z"/>
<path style="fill:#c77066; stroke:none;" d="M112 77L113 78L112 77M147 77L148 78L147 77z"/>
<path style="fill:#eea496; stroke:none;" d="M148 77L149 78L148 77M291 77L292 78L291 77z"/>
<path style="fill:#c77066; stroke:none;" d="M292 77L293 78L292 77M326 77L327 78L326 77z"/>
<path style="fill:#eea496; stroke:none;" d="M327 77L328 78L327 77M380 77L381 78L380 77M96 78L97 79L96 78M113 78L114 79L113 78z"/>
<path style="fill:#c77066; stroke:none;" d="M114 78L115 79L114 78M149 78L152 80L152 79L149 78z"/>
<path style="fill:#eea496; stroke:none;" d="M150 78L151 79L150 78M289 78L290 79L289 78z"/>
<path style="fill:#c77066; stroke:none;" d="M290 78L291 79L290 78z"/>
<path style="fill:#eea496; stroke:none;" d="M325 78L326 79L325 78M378 78L379 79L378 78M98 79L99 80L98 79M115 79L116 80L115 79z"/>
<path style="fill:#c77066; stroke:none;" d="M116 79L117 80L116 79z"/>
<path style="fill:#eea496; stroke:none;" d="M287 79L288 80L287 79z"/>
<path style="fill:#c77066; stroke:none;" d="M288 79L289 80L288 79z"/>
<path style="fill:#eea496; stroke:none;" d="M323 79L324 80L323 79z"/>
<path style="fill:#c77066; stroke:none;" d="M376 79L377 80L376 79z"/>
<path style="fill:#eea496; stroke:none;" d="M100 80L101 81L100 80M117 80L118 81L117 80z"/>
<path style="fill:#c77066; stroke:none;" d="M118 80L119 81L118 80M152 80L153 81L152 80z"/>
<path style="fill:#eea496; stroke:none;" d="M153 80L154 81L153 80M285 80L286 81L285 80z"/>
<path style="fill:#c77066; stroke:none;" d="M286 80L287 81L286 80M320 80L316 82L316 83L321 81L320 80z"/>
<path style="fill:#eea496; stroke:none;" d="M321 80L322 81L321 80M374 80L375 81L374 80M102 81L103 82L102 81M119 81L120 82L119 81z"/>
<path style="fill:#c77066; stroke:none;" d="M120 81L121 82L120 81M154 81L153 83L155 83L154 81z"/>
<path style="fill:#eea496; stroke:none;" d="M155 81L156 82L155 81M283 81L284 82L283 81z"/>
<path style="fill:#c77066; stroke:none;" d="M284 81L282 82L282 83L284 81z"/>
<path style="fill:#eea496; stroke:none;" d="M320 81L321 82L320 81M372 81L373 82L372 81M121 82L122 83L121 82z"/>
<path style="fill:#c77066; stroke:none;" d="M122 82L123 83L122 82z"/>
<path style="fill:#2e2d71; stroke:none;" d="M155 82L156 83L155 82z"/>
<path style="fill:#c77066; stroke:none;" d="M156 82L157 83L156 82z"/>
<path style="fill:#eea496; stroke:none;" d="M157 82L158 83L157 82z"/>
<path style="fill:#2e2d71; stroke:none;" d="M284 82L285 83L284 82z"/>
<path style="fill:#c77066; stroke:none;" d="M286.667 82.3333L287.333 82.6667L286.667 82.3333z"/>
<path style="fill:#eea496; stroke:none;" d="M318 82L319 83L318 82M124.667 83.3333L125.333 83.6667L124.667 83.3333M128 83L128 84L153 84L128 83M155.667 83.3333L156.333 83.6667L155.667 83.3333M283.667 83.3333L284.333 83.6667L283.667 83.3333M287 83L287 84L312 84L287 83z"/>
<path style="fill:#c77066; stroke:none;" d="M213 99L214 100L213 99z"/>
<path style="fill:#eea496; stroke:none;" d="M0 149L0 150L209 150L189 149L147 149L0 149z"/>
<path style="fill:#c77066; stroke:none;" d="M209 149L210 150L209 149z"/>
<path style="fill:#eea496; stroke:none;" d="M210 149L211 150L210 149z"/>
<path style="fill:#c77066; stroke:none;" d="M211 149L211 150L214 150L211 149M261 149L262 150L261 149z"/>
<path style="fill:#eea496; stroke:none;" d="M262 149L261 182L261 248L262 248L262 181L262 149z"/>
<path style="fill:#c77066; stroke:none;" d="M263 149L264 150L263 149z"/>
<path style="fill:#eea496; stroke:none;" d="M264 149L264 150L474 150L454 149L412 149L264 149z"/>
<path style="fill:#fcfaf9; stroke:none;" d="M0 150L0 166L104 166L104 167C79.2427 177.668 56.0813 192.626 32 204.752C23.8948 208.834 6.24261 214.168 1.02778 221.637C-2.73484 227.027 0 241.528 0 248L5 248L16 240.833L50 222.833L123 184.667L158 166.333L193 166L193 167C154.731 183.486 117.668 205.86 81 225.691C70.5164 231.361 47.9592 237.526 42 248C62.1471 248 77.2755 236.136 95 227.247C129.489 209.949 164.685 192.463 198 173L198 248L213 248L213 150L0 150z"/>
<path style="fill:#eea496; stroke:none;" d="M213 150L213 248L214 248L214 180L213 150z"/>
<path style="fill:#fcfaf9; stroke:none;" d="M262 150L262 248L277 248L277 173L368 220.861L404 239.756L419.17 247.725L469 248C458.805 236.106 435.906 228.936 422 221.742C387.26 203.769 353.106 182.032 317 167L317 166L353 166.699L388 184.972L444 214.167L474 229L474 220L450 208.248L397 180.742L370 167L370 166L474 166L474 150L262 150z"/>
<path style="fill:#2e2d71; stroke:none;" d="M0 166L0 221L57 191.309L103 167L72 166L0 166z"/>
<path style="fill:#c77066; stroke:none;" d="M103 166L104 167L103 166z"/>
<path style="fill:#eea496; stroke:none;" d="M157 166L158 167L157 166z"/>
<path style="fill:#c77066; stroke:none;" d="M158 166L158 167L192 167L158 166z"/>
<path style="fill:#eea496; stroke:none;" d="M192 166L193 167L192 166M317 166L319 168L317 166z"/>
<path style="fill:#c77066; stroke:none;" d="M318 166L318 167L352 167L318 166z"/>
<path style="fill:#eea496; stroke:none;" d="M352 166L352 167L357 169L357 168L352 166M370 166L371 167L370 166z"/>
<path style="fill:#c77066; stroke:none;" d="M371 166L373 168L371 166z"/>
<path style="fill:#2e2d71; stroke:none;" d="M372 166L372 167L432 198.781L474 220L474 166L372 166z"/>
<path style="fill:#c77066; stroke:none;" d="M102 167L103 168L102 167z"/>
<path style="fill:#eea496; stroke:none;" d="M155 167L156 168L155 167z"/>
<path style="fill:#c77066; stroke:none;" d="M156 167L157 168L156 167z"/>
<path style="fill:#d93113; stroke:none;" d="M6 248L37.8302 247.701L54 239.12L89 220.861L190 168C172.675 160.73 151.964 170.018 137 177.742C107.591 192.921 78.5897 208.947 49 223.753C38.9397 228.787 28.9051 234.036 19 239.374C14.6003 241.746 8.78432 243.749 6 248z"/>
<path style="fill:#eea496; stroke:none;" d="M191 167L192 168L191 167z"/>
<path style="fill:#d93113; stroke:none;" d="M320 167L320 168C357.556 183.64 394.183 205.949 430 225.309C443.573 232.645 459.103 244.098 474 248L472.972 230.637L462 224.282L435 209.756L381 181.702L353 167.532L320 167z"/>
<path style="fill:#c77066; stroke:none;" d="M353 167L354 168L353 167M100 168L101 169L100 168z"/>
<path style="fill:#eea496; stroke:none;" d="M153 168L154 169L153 168z"/>
<path style="fill:#c77066; stroke:none;" d="M154 168L155 169L154 168M188 168L189 169L188 168z"/>
<path style="fill:#eea496; stroke:none;" d="M189 168L190 169L189 168M320 168L321 169L320 168z"/>
<path style="fill:#c77066; stroke:none;" d="M321 168L322 169L321 168M374 168L375 169L374 168z"/>
<path style="fill:#eea496; stroke:none;" d="M151 169L152 170L151 169z"/>
<path style="fill:#c77066; stroke:none;" d="M152 169L153 170L152 169z"/>
<path style="fill:#eea496; stroke:none;" d="M187 169L188 170L187 169M322 169L323 170L322 169z"/>
<path style="fill:#c77066; stroke:none;" d="M323 169L324 170L323 169z"/>
<path style="fill:#eea496; stroke:none;" d="M358 169L359 170L358 169M375 169L376 170L375 169M97 170L98 171L97 170M149 170L150 171L149 170z"/>
<path style="fill:#c77066; stroke:none;" d="M150 170L151 171L150 170M184 170L185 171L184 170z"/>
<path style="fill:#eea496; stroke:none;" d="M185.667 170.333L186.333 170.667L185.667 170.333M324 170L325 171L324 170z"/>
<path style="fill:#c77066; stroke:none;" d="M325 170L326 171L325 170M359 170L360 171L359 170z"/>
<path style="fill:#eea496; stroke:none;" d="M360 170L361 171L360 170z"/>
<path style="fill:#c77066; stroke:none;" d="M94 171L95 172L94 171z"/>
<path style="fill:#eea496; stroke:none;" d="M95 171L96 172L95 171M147 171L148 172L147 171z"/>
<path style="fill:#c77066; stroke:none;" d="M148 171L149 172L148 171M182 171L183 172L182 171z"/>
<path style="fill:#eea496; stroke:none;" d="M183.667 171.333L184.333 171.667L183.667 171.333M326 171L327 172L326 171z"/>
<path style="fill:#c77066; stroke:none;" d="M327 171L328 172L327 171M361 171L362 172L361 171z"/>
<path style="fill:#eea496; stroke:none;" d="M362 171L363 172L362 171M93 172L94 173L93 172M145 172L146 173L145 172z"/>
<path style="fill:#c77066; stroke:none;" d="M146 172L147 173L146 172M181 172L182 173L181 172z"/>
<path style="fill:#eea496; stroke:none;" d="M328 172L329 173L328 172z"/>
<path style="fill:#c77066; stroke:none;" d="M329 172L330 173L329 172M363 172L364 173L363 172z"/>
<path style="fill:#eea496; stroke:none;" d="M364 172L365 173L364 172M381 172L382 173L381 172M91 173L92 174L91 173z"/>
<path style="fill:#c77066; stroke:none;" d="M144 173L145 174L144 173M179 173L180 174L179 173z"/>
<path style="fill:#eea496; stroke:none;" d="M197 173L198 174L197 173M277 173L278 174L277 173M330 173L331 174L330 173z"/>
<path style="fill:#c77066; stroke:none;" d="M365 173L366 174L365 173z"/>
<path style="fill:#eea496; stroke:none;" d="M366 173L367 174L366 173M383 173L384 174L383 173M89 174L90 175L89 174z"/>
<path style="fill:#c77066; stroke:none;" d="M142 174L143 175L142 174M177 174L178 175L177 174z"/>
<path style="fill:#eea496; stroke:none;" d="M195 174L196 175L195 174z"/>
<path style="fill:#2e2d71; stroke:none;" d="M59 248L198 248L198 174C185.226 177.68 172.702 186.4 161 192.692C140.141 203.908 119.173 215.158 98 225.753C87.3977 231.058 65.5078 238.034 59 248M277 174L277 248L416 248C409.507 238.087 387.571 231.039 377 225.753C355.164 214.833 333.476 203.306 312 191.691C300.988 185.736 289.022 177.47 277 174z"/>
<path style="fill:#eea496; stroke:none;" d="M279 174L280 175L279 174M332 174L333 175L332 174z"/>
<path style="fill:#c77066; stroke:none;" d="M367 174L368 175L367 174z"/>
<path style="fill:#eea496; stroke:none;" d="M368 174L369 175L368 174z"/>
<path style="fill:#c77066; stroke:none;" d="M385 174L386 175L385 174M87 175L88 176L87 175z"/>
<path style="fill:#eea496; stroke:none;" d="M139 175L138 177L139 175z"/>
<path style="fill:#c77066; stroke:none;" d="M140.667 175.333L141.333 175.667L140.667 175.333M175 175L176 176L175 175z"/>
<path style="fill:#eea496; stroke:none;" d="M176 175L177 176L176 175M193 175L194 176L193 175M281 175L282 176L281 175M334 175L335 176L334 175z"/>
<path style="fill:#c77066; stroke:none;" d="M369 175L370 176L369 175z"/>
<path style="fill:#eea496; stroke:none;" d="M370 175L371 176L370 175z"/>
<path style="fill:#c77066; stroke:none;" d="M387 175L388 176L387 175M85 176L86 177L85 176M139 176L140 177L139 176M173 176L174 177L173 176z"/>
<path style="fill:#eea496; stroke:none;" d="M174 176L175 177L174 176M191 176L192 177L191 176M283 176L284 177L283 176z"/>
<path style="fill:#c77066; stroke:none;" d="M336 176L337 177L336 176M371 176L372 177L371 176z"/>
<path style="fill:#eea496; stroke:none;" d="M372 176L373 177L372 176z"/>
<path style="fill:#c77066; stroke:none;" d="M389 176L390 177L389 176M83 177L84 178L83 177z"/>
<path style="fill:#eea496; stroke:none;" d="M136 177L137 178L136 177z"/>
<path style="fill:#c77066; stroke:none;" d="M137 177L138 178L137 177M171 177L172 178L171 177z"/>
<path style="fill:#eea496; stroke:none;" d="M172 177L173 178L172 177M189 177L190 178L189 177M337 177L338 178L337 177z"/>
<path style="fill:#c77066; stroke:none;" d="M338 177L339 178L338 177M373 177L376 179L376 178L373 177z"/>
<path style="fill:#eea496; stroke:none;" d="M374 177L375 178L374 177z"/>
<path style="fill:#c77066; stroke:none;" d="M391 177L392 178L391 177M81 178L82 179L81 178z"/>
<path style="fill:#eea496; stroke:none;" d="M134 178L135 179L134 178z"/>
<path style="fill:#c77066; stroke:none;" d="M135 178L136 179L135 178M169 178L170 179L169 178z"/>
<path style="fill:#eea496; stroke:none;" d="M170 178L171 179L170 178z"/>
<path style="fill:#c77066; stroke:none;" d="M286 178L287 179L286 178z"/>
<path style="fill:#eea496; stroke:none;" d="M339 178L340 179L339 178z"/>
<path style="fill:#c77066; stroke:none;" d="M340 178L341 179L340 178z"/>
<path style="fill:#eea496; stroke:none;" d="M392 178L393 179L392 178z"/>
<path style="fill:#c77066; stroke:none;" d="M393 178L394 179L393 178M79 179L80 180L79 179z"/>
<path style="fill:#eea496; stroke:none;" d="M132 179L133 180L132 179z"/>
<path style="fill:#c77066; stroke:none;" d="M133 179L134 180L133 179M167 179L168 180L167 179z"/>
<path style="fill:#eea496; stroke:none;" d="M168.667 179.333L169.333 179.667L168.667 179.333M185 179L186 180L185 179z"/>
<path style="fill:#c77066; stroke:none;" d="M288 179L289 180L288 179z"/>
<path style="fill:#eea496; stroke:none;" d="M289 179L290 180L289 179M341 179L342 180L341 179z"/>
<path style="fill:#c77066; stroke:none;" d="M342 179L343 180L342 179z"/>
<path style="fill:#eea496; stroke:none;" d="M377 179L378 180L377 179M394 179L395 180L394 179z"/>
<path style="fill:#c77066; stroke:none;" d="M395 179L396 180L395 179M77 180L78 181L77 180z"/>
<path style="fill:#eea496; stroke:none;" d="M130 180L131 181L130 180z"/>
<path style="fill:#c77066; stroke:none;" d="M131 180L132 181L131 180M166 180L167 181L166 180M184 180L185 181L184 180M290 180L291 181L290 180z"/>
<path style="fill:#eea496; stroke:none;" d="M291 180L292 181L291 180M343 180L344 181L343 180z"/>
<path style="fill:#c77066; stroke:none;" d="M344 180L344 181L347 182L344 180M378 180L379 181L378 180z"/>
<path style="fill:#eea496; stroke:none;" d="M379 180L380 181L379 180M396 180L397 181L396 180M128 181L129 182L128 181z"/>
<path style="fill:#c77066; stroke:none;" d="M129 181L130 182L129 181M164 181L165 182L164 181M182 181L183 182L182 181M292 181L293 182L292 181z"/>
<path style="fill:#eea496; stroke:none;" d="M345 181L346 182L345 181z"/>
<path style="fill:#c77066; stroke:none;" d="M380 181L381 182L380 181z"/>
<path style="fill:#eea496; stroke:none;" d="M381 181L382 182L381 181M398 181L399 182L398 181z"/>
<path style="fill:#c77066; stroke:none;" d="M399 181L400 182L399 181z"/>
<path style="fill:#eea496; stroke:none;" d="M126.667 182.333L127.333 182.667L126.667 182.333M162 182L163 183L162 182z"/>
<path style="fill:#c77066; stroke:none;" d="M180 182L181 183L180 182M294 182L295 183L294 182z"/>
<path style="fill:#eea496; stroke:none;" d="M347 182L348 183L347 182z"/>
<path style="fill:#c77066; stroke:none;" d="M348 182L349 183L348 182M382 182L383 183L382 182z"/>
<path style="fill:#eea496; stroke:none;" d="M383 182L384 183L383 182M400 182L401 183L400 182M72 183L73 184L72 183M124.667 183.333L125.333 183.667L124.667 183.333M160.667 183.333L161.333 183.667L160.667 183.333z"/>
<path style="fill:#c77066; stroke:none;" d="M178 183L179 184L178 183z"/>
<path style="fill:#eea496; stroke:none;" d="M296 183L297 184L296 183M349 183L350 184L349 183z"/>
<path style="fill:#c77066; stroke:none;" d="M350 183L351 184L350 183M384 183L385 184L384 183z"/>
<path style="fill:#eea496; stroke:none;" d="M385 183L386 184L385 183M402 183L403 184L402 183M70 184L71 185L70 184z"/>
<path style="fill:#c77066; stroke:none;" d="M123 184L124 185L123 184M158 184L159 185L158 184z"/>
<path style="fill:#eea496; stroke:none;" d="M159 184L160 185L159 184z"/>
<path style="fill:#c77066; stroke:none;" d="M176 184L177 185L176 184z"/>
<path style="fill:#eea496; stroke:none;" d="M298 184L299 185L298 184M351 184L352 185L351 184z"/>
<path style="fill:#c77066; stroke:none;" d="M386 184L387 185L386 184z"/>
<path style="fill:#eea496; stroke:none;" d="M387 184L388 185L387 184M404 184L405 185L404 184M68 185L69 186L68 185M121 185L122 186L121 185z"/>
<path style="fill:#c77066; stroke:none;" d="M156 185L157 186L156 185z"/>
<path style="fill:#eea496; stroke:none;" d="M157 185L158 186L157 185M174 185L175 186L174 185z"/>
<path style="fill:#c77066; stroke:none;" d="M300 185L301 186L300 185z"/>
<path style="fill:#eea496; stroke:none;" d="M353 185L354 186L353 185z"/>
<path style="fill:#c77066; stroke:none;" d="M388 185L389 186L388 185z"/>
<path style="fill:#eea496; stroke:none;" d="M406 185L407 186L406 185M66 186L67 187L66 186M117 188L120 187L117 188z"/>
<path style="fill:#c77066; stroke:none;" d="M154 186L155 187L154 186z"/>
<path style="fill:#eea496; stroke:none;" d="M155 186L156 187L155 186M172 186L173 187L172 186M302 186L303 187L302 186M354 186L354 187L357 188L354 186z"/>
<path style="fill:#c77066; stroke:none;" d="M356 186L357 187L356 186M390 186L391 187L390 186M408 186L409 187L408 186z"/>
<path style="fill:#eea496; stroke:none;" d="M64.6667 187.333L65.3333 187.667L64.6667 187.333z"/>
<path style="fill:#c77066; stroke:none;" d="M118 187L119 188L118 187M152 187L153 188L152 187z"/>
<path style="fill:#eea496; stroke:none;" d="M153 187L154 188L153 187M170 187L171 188L170 187M304 187L305 188L304 187z"/>
<path style="fill:#c77066; stroke:none;" d="M357 187L357 188L360 189L357 187z"/>
<path style="fill:#eea496; stroke:none;" d="M392.667 187.333L393.333 187.667L392.667 187.333z"/>
<path style="fill:#c77066; stroke:none;" d="M410 187L411 188L410 187M62 188L63 189L62 188z"/>
<path style="fill:#eea496; stroke:none;" d="M115 188L116 189L115 188z"/>
<path style="fill:#c77066; stroke:none;" d="M150 188L151 189L150 188z"/>
<path style="fill:#eea496; stroke:none;" d="M151 188L152 189L151 188M168 188L169 189L168 188z"/>
<path style="fill:#c77066; stroke:none;" d="M169 188L170 189L169 188z"/>
<path style="fill:#eea496; stroke:none;" d="M306 188L307 189L306 188M358 188L359 189L358 188z"/>
<path style="fill:#c77066; stroke:none;" d="M393 188L393 189L396 190L393 188z"/>
<path style="fill:#eea496; stroke:none;" d="M395 188L396 189L395 188z"/>
<path style="fill:#c77066; stroke:none;" d="M412 188L413 189L412 188M60 189L61 190L60 189z"/>
<path style="fill:#eea496; stroke:none;" d="M113 189L114 190L113 189M149 189L150 190L149 189M308 189L309 190L308 189z"/>
<path style="fill:#c77066; stroke:none;" d="M361 189L362 190L361 189z"/>
<path style="fill:#eea496; stroke:none;" d="M396.667 189.333L397.333 189.667L396.667 189.333z"/>
<path style="fill:#c77066; stroke:none;" d="M414 189L415 190L414 189M58 190L59 191L58 190z"/>
<path style="fill:#eea496; stroke:none;" d="M111 190L112 191L111 190z"/>
<path style="fill:#c77066; stroke:none;" d="M146 190L147 191L146 190z"/>
<path style="fill:#eea496; stroke:none;" d="M147 190L148 191L147 190M164 190L165 191L164 190z"/>
<path style="fill:#c77066; stroke:none;" d="M309 190L310 191L309 190z"/>
<path style="fill:#eea496; stroke:none;" d="M310 190L311 191L310 190M362 190L363 191L362 190z"/>
<path style="fill:#c77066; stroke:none;" d="M363 190L364 191L363 190z"/>
<path style="fill:#eea496; stroke:none;" d="M398.667 190.333L399.333 190.667L398.667 190.333z"/>
<path style="fill:#c77066; stroke:none;" d="M56 191L57 192L56 191z"/>
<path style="fill:#eea496; stroke:none;" d="M57 191L58 192L57 191M109 191L110 192L109 191z"/>
<path style="fill:#c77066; stroke:none;" d="M110 191L111 192L110 191M144 191L145 192L144 191z"/>
<path style="fill:#eea496; stroke:none;" d="M145 191L146 192L145 191z"/>
<path style="fill:#c77066; stroke:none;" d="M163 191L164 192L163 191M311 191L312 192L311 191z"/>
<path style="fill:#eea496; stroke:none;" d="M364 191L365 192L364 191z"/>
<path style="fill:#c77066; stroke:none;" d="M365 191L366 192L365 191z"/>
<path style="fill:#eea496; stroke:none;" d="M400 191L401 192L400 191M417 191L418 192L417 191z"/>
<path style="fill:#c77066; stroke:none;" d="M54 192L55 193L54 192z"/>
<path style="fill:#eea496; stroke:none;" d="M55 192L56 193L55 192M107 192L108 193L107 192z"/>
<path style="fill:#c77066; stroke:none;" d="M108 192L109 193L108 192M141 194L144 193L141 194M161 192L162 193L161 192M313 192L314 193L313 192z"/>
<path style="fill:#eea496; stroke:none;" d="M366 192L369 194L369 193L366 192z"/>
<path style="fill:#c77066; stroke:none;" d="M367 192L368 193L367 192M401 192L402 193L401 192z"/>
<path style="fill:#eea496; stroke:none;" d="M402 192L403 193L402 192M419 192L420 193L419 192M53 193L54 194L53 193M105 193L106 194L105 193z"/>
<path style="fill:#c77066; stroke:none;" d="M106 193L107 194L106 193z"/>
<path style="fill:#eea496; stroke:none;" d="M142 193L143 194L142 193z"/>
<path style="fill:#c77066; stroke:none;" d="M159 193L160 194L159 193M315 193L316 194L315 193M369 193L370 194L369 193M403 193L404 194L403 193z"/>
<path style="fill:#eea496; stroke:none;" d="M404 193L405 194L404 193M421 193L422 194L421 193M51 194L52 195L51 194M103 194L104 195L103 194z"/>
<path style="fill:#c77066; stroke:none;" d="M104.667 194.333L105.333 194.667L104.667 194.333M139 194L140 195L139 194z"/>
<path style="fill:#eea496; stroke:none;" d="M140 194L141 195L140 194z"/>
<path style="fill:#c77066; stroke:none;" d="M157 194L158 195L157 194z"/>
<path style="fill:#eea496; stroke:none;" d="M317 194L318 195L317 194M370 194L371 195L370 194z"/>
<path style="fill:#c77066; stroke:none;" d="M405 194L406 195L405 194z"/>
<path style="fill:#eea496; stroke:none;" d="M406 194L407 195L406 194M423 194L424 195L423 194M49 195L50 196L49 195M102 195L103 196L102 195z"/>
<path style="fill:#c77066; stroke:none;" d="M137 195L138 196L137 195z"/>
<path style="fill:#eea496; stroke:none;" d="M138 195L139 196L138 195M155 195L156 196L155 195M319 195L320 196L319 195M372 195L373 196L372 195z"/>
<path style="fill:#c77066; stroke:none;" d="M407 195L408 196L407 195z"/>
<path style="fill:#eea496; stroke:none;" d="M408 195L409 196L408 195M425 195L426 196L425 195M47 196L48 197L47 196M100 196L101 197L100 196z"/>
<path style="fill:#c77066; stroke:none;" d="M133 198L136 197L133 198z"/>
<path style="fill:#eea496; stroke:none;" d="M136 196L137 197L136 196M153 196L154 197L153 196M321 196L322 197L321 196M374 196L375 197L374 196z"/>
<path style="fill:#c77066; stroke:none;" d="M409 196L410 197L409 196z"/>
<path style="fill:#eea496; stroke:none;" d="M410 196L411 197L410 196z"/>
<path style="fill:#c77066; stroke:none;" d="M427 196L428 197L427 196z"/>
<path style="fill:#eea496; stroke:none;" d="M45 197L46 198L45 197M98 197L99 198L98 197M134 197L135 198L134 197M151 197L152 198L151 197M323 197L324 198L323 197M375 197L376 198L375 197z"/>
<path style="fill:#c77066; stroke:none;" d="M376 197L376 198L379 199L376 197M411 197L412 198L411 197z"/>
<path style="fill:#eea496; stroke:none;" d="M412 197L413 198L412 197z"/>
<path style="fill:#c77066; stroke:none;" d="M429 197L430 198L429 197M43 198L44 199L43 198z"/>
<path style="fill:#eea496; stroke:none;" d="M94 200L97 199L94 200z"/>
<path style="fill:#c77066; stroke:none;" d="M97 198L98 199L97 198M131 198L132 199L131 198z"/>
<path style="fill:#eea496; stroke:none;" d="M132 198L133 199L132 198M149 198L150 199L149 198z"/>
<path style="fill:#c77066; stroke:none;" d="M150 198L151 199L150 198z"/>
<path style="fill:#eea496; stroke:none;" d="M325 198L326 199L325 198M377 198L378 199L377 198z"/>
<path style="fill:#c77066; stroke:none;" d="M413 198L416 200L416 199L413 198z"/>
<path style="fill:#eea496; stroke:none;" d="M414 198L415 199L414 198z"/>
<path style="fill:#c77066; stroke:none;" d="M431 198L432 199L431 198M41 199L42 200L41 199M95 199L96 200L95 199M129 199L130 200L129 199z"/>
<path style="fill:#eea496; stroke:none;" d="M130 199L131 200L130 199M147 199L148 200L147 199z"/>
<path style="fill:#c77066; stroke:none;" d="M326 199L327 200L326 199z"/>
<path style="fill:#eea496; stroke:none;" d="M327 199L328 200L327 199M379 199L380 200L379 199z"/>
<path style="fill:#c77066; stroke:none;" d="M380 199L381 200L380 199M433 199L434 200L433 199M39 200L40 201L39 200z"/>
<path style="fill:#eea496; stroke:none;" d="M92 200L93 201L92 200z"/>
<path style="fill:#c77066; stroke:none;" d="M93 200L94 201L93 200z"/>
<path style="fill:#eea496; stroke:none;" d="M128 200L129 201L128 200M145 200L146 201L145 200z"/>
<path style="fill:#c77066; stroke:none;" d="M146 200L147 201L146 200M328 200L329 201L328 200z"/>
<path style="fill:#eea496; stroke:none;" d="M329 200L330 201L329 200M381 200L382 201L381 200z"/>
<path style="fill:#c77066; stroke:none;" d="M382 200L383 201L382 200M416 200L417 201L416 200z"/>
<path style="fill:#eea496; stroke:none;" d="M417 200L418 201L417 200z"/>
<path style="fill:#c77066; stroke:none;" d="M435 200L436 201L435 200M37 201L38 202L37 201z"/>
<path style="fill:#eea496; stroke:none;" d="M38 201L39 202L38 201M90 201L91 202L90 201z"/>
<path style="fill:#c77066; stroke:none;" d="M91 201L92 202L91 201z"/>
<path style="fill:#eea496; stroke:none;" d="M126 201L127 202L126 201z"/>
<path style="fill:#c77066; stroke:none;" d="M330 201L331 202L330 201z"/>
<path style="fill:#eea496; stroke:none;" d="M383 201L384 202L383 201z"/>
<path style="fill:#c77066; stroke:none;" d="M384 201L385 202L384 201M418 201L419 202L418 201z"/>
<path style="fill:#eea496; stroke:none;" d="M419 201L420 202L419 201M36 202L37 203L36 202M88 202L89 203L88 202z"/>
<path style="fill:#c77066; stroke:none;" d="M89 202L90 203L89 202M123 202L124 203L123 202z"/>
<path style="fill:#eea496; stroke:none;" d="M124 202L125 203L124 202z"/>
<path style="fill:#c77066; stroke:none;" d="M142 202L143 203L142 202M332 202L333 203L332 202z"/>
<path style="fill:#eea496; stroke:none;" d="M385 202L386 203L385 202z"/>
<path style="fill:#c77066; stroke:none;" d="M386 202L387 203L386 202M420 202L421 203L420 202z"/>
<path style="fill:#eea496; stroke:none;" d="M421 202L422 203L421 202M438 202L439 203L438 202M34 203L35 204L34 203M86 203L87 204L86 203z"/>
<path style="fill:#c77066; stroke:none;" d="M87 203L88 204L87 203M121 203L120 205L121 203z"/>
<path style="fill:#eea496; stroke:none;" d="M122.667 203.333L123.333 203.667L122.667 203.333z"/>
<path style="fill:#c77066; stroke:none;" d="M140 203L141 204L140 203M334 203L335 204L334 203z"/>
<path style="fill:#eea496; stroke:none;" d="M387 203L388 204L387 203z"/>
<path style="fill:#c77066; stroke:none;" d="M422 203L423 204L422 203z"/>
<path style="fill:#eea496; stroke:none;" d="M423 203L424 204L423 203M440 203L441 204L440 203z"/>
<path style="fill:#c77066; stroke:none;" d="M441 203L442 204L441 203z"/>
<path style="fill:#eea496; stroke:none;" d="M32 204L33 205L32 204M84 204L82 205L82 206L84 204z"/>
<path style="fill:#c77066; stroke:none;" d="M85 204L86 205L85 204z"/>
<path style="fill:#eea496; stroke:none;" d="M121 204L122 205L121 204z"/>
<path style="fill:#c77066; stroke:none;" d="M138 204L139 205L138 204M336 204L337 205L336 204z"/>
<path style="fill:#eea496; stroke:none;" d="M389 204L390 205L389 204z"/>
<path style="fill:#c77066; stroke:none;" d="M424 204L425 205L424 204z"/>
<path style="fill:#eea496; stroke:none;" d="M425 204L426 205L425 204M442 204L443 205L442 204M30 205L31 206L30 205z"/>
<path style="fill:#c77066; stroke:none;" d="M84 205L85 206L84 205M118 205L119 206L118 205M136 205L137 206L136 205z"/>
<path style="fill:#eea496; stroke:none;" d="M338 205L339 206L338 205M390.667 205.333L391.333 205.667L390.667 205.333z"/>
<path style="fill:#c77066; stroke:none;" d="M426 205L427 206L426 205z"/>
<path style="fill:#eea496; stroke:none;" d="M427 205L428 206L427 205M444 205L445 206L444 205z"/>
<path style="fill:#c77066; stroke:none;" d="M28 206L29 207L28 206z"/>
<path style="fill:#eea496; stroke:none;" d="M80.6667 206.333L81.3333 206.667L80.6667 206.333z"/>
<path style="fill:#c77066; stroke:none;" d="M116 206L117 207L116 206z"/>
<path style="fill:#eea496; stroke:none;" d="M134 206L135 207L134 206M340 206L341 207L340 206M393 206L394 207L393 206z"/>
<path style="fill:#c77066; stroke:none;" d="M428 206L429 207L428 206z"/>
<path style="fill:#eea496; stroke:none;" d="M429 206L430 207L429 206M446 206L447 207L446 206M26 207L27 208L26 207M79 207L80 208L79 207z"/>
<path style="fill:#c77066; stroke:none;" d="M114 207L115 208L114 207z"/>
<path style="fill:#eea496; stroke:none;" d="M115 207L116 208L115 207M132 207L133 208L132 207M342 207L343 208L342 207z"/>
<path style="fill:#c77066; stroke:none;" d="M395 207L396 208L395 207M430 207L431 208L430 207z"/>
<path style="fill:#eea496; stroke:none;" d="M431 207L432 208L431 207z"/>
<path style="fill:#c77066; stroke:none;" d="M448 207L449 208L448 207z"/>
<path style="fill:#eea496; stroke:none;" d="M24 208L25 209L24 208M77 208L78 209L77 208z"/>
<path style="fill:#c77066; stroke:none;" d="M78 208L79 209L78 208M112 208L113 209L112 208z"/>
<path style="fill:#eea496; stroke:none;" d="M113 208L114 209L113 208M130 208L131 209L130 208M344 208L345 209L344 208M396 208L397 209L396 208z"/>
<path style="fill:#c77066; stroke:none;" d="M397.667 208.333L398.333 208.667L397.667 208.333z"/>
<path style="fill:#eea496; stroke:none;" d="M432.667 208.333L433.333 208.667L432.667 208.333z"/>
<path style="fill:#c77066; stroke:none;" d="M450 208L451 209L450 208M22 209L23 210L22 209z"/>
<path style="fill:#eea496; stroke:none;" d="M75 209L76 210L75 209z"/>
<path style="fill:#c77066; stroke:none;" d="M76 209L77 210L76 209M107 209L108 210L107 209M110 209L111 210L110 209z"/>
<path style="fill:#eea496; stroke:none;" d="M111 209L112 210L111 209M128 209L129 210L128 209z"/>
<path style="fill:#c77066; stroke:none;" d="M345 209L346 210L345 209z"/>
<path style="fill:#eea496; stroke:none;" d="M346 209L347 210L346 209M398.667 209.333L399.333 209.667L398.667 209.333M434 209L435 210L434 209z"/>
<path style="fill:#c77066; stroke:none;" d="M452 209L453 210L452 209M20 210L21 211L20 210z"/>
<path style="fill:#eea496; stroke:none;" d="M73 210L74 211L73 210z"/>
<path style="fill:#c77066; stroke:none;" d="M74 210L75 211L74 210M108 210L109 211L108 210z"/>
<path style="fill:#eea496; stroke:none;" d="M109 210L110 211L109 210M126 210L127 211L126 210z"/>
<path style="fill:#c77066; stroke:none;" d="M127 210L128 211L127 210z"/>
<path style="fill:#eea496; stroke:none;" d="M400 210L401 211L400 210z"/>
<path style="fill:#c77066; stroke:none;" d="M401 210L402 211L401 210M436 210L437 211L436 210M454 210L455 211L454 210M18 211L19 212L18 211z"/>
<path style="fill:#eea496; stroke:none;" d="M19 211L20 212L19 211M71 211L72 212L71 211z"/>
<path style="fill:#c77066; stroke:none;" d="M72.6667 211.333L73.3333 211.667L72.6667 211.333z"/>
<path style="fill:#eea496; stroke:none;" d="M107 211L108 212L107 211z"/>
<path style="fill:#c77066; stroke:none;" d="M125 211L126 212L125 211M349 211L350 212L349 211z"/>
<path style="fill:#eea496; stroke:none;" d="M402 211L403 212L402 211z"/>
<path style="fill:#c77066; stroke:none;" d="M403 211L404 212L403 211M438 211L439 212L438 211M456 211L457 212L456 211M16 212L17 213L16 212z"/>
<path style="fill:#eea496; stroke:none;" d="M17 212L18 213L17 212M69 212L70 213L69 212z"/>
<path style="fill:#c77066; stroke:none;" d="M70 212L71 213L70 212z"/>
<path style="fill:#eea496; stroke:none;" d="M105 212L106 213L105 212z"/>
<path style="fill:#c77066; stroke:none;" d="M123 212L124 213L123 212M351 212L352 213L351 212z"/>
<path style="fill:#eea496; stroke:none;" d="M404 212L405 213L404 212z"/>
<path style="fill:#c77066; stroke:none;" d="M405 212L406 213L405 212z"/>
<path style="fill:#eea496; stroke:none;" d="M440 212L440 213L443 214L440 212M457 212L458 213L457 212M67 213L68 214L67 213z"/>
<path style="fill:#c77066; stroke:none;" d="M68 213L69 214L68 213M101 215L104 214L101 215M121 213L122 214L121 213M353 213L354 214L353 213z"/>
<path style="fill:#eea496; stroke:none;" d="M406 213L407 214L406 213z"/>
<path style="fill:#c77066; stroke:none;" d="M407 213L408 214L407 213M441 213L442 214L441 213z"/>
<path style="fill:#eea496; stroke:none;" d="M65 214L66 215L65 214z"/>
<path style="fill:#c77066; stroke:none;" d="M66 214L67 215L66 214z"/>
<path style="fill:#eea496; stroke:none;" d="M102 214L103 215L102 214z"/>
<path style="fill:#c77066; stroke:none;" d="M119 214L120 215L119 214M355 214L356 215L355 214z"/>
<path style="fill:#eea496; stroke:none;" d="M408 214L409 215L408 214z"/>
<path style="fill:#c77066; stroke:none;" d="M409 214L410 215L409 214M443 214L444 215L443 214z"/>
<path style="fill:#eea496; stroke:none;" d="M444 214L445 215L444 214M461 214L462 215L461 214M11 215L12 216L11 215z"/>
<path style="fill:#c77066; stroke:none;" d="M64 215L65 216L64 215M99 215L100 216L99 215z"/>
<path style="fill:#eea496; stroke:none;" d="M100 215L101 216L100 215z"/>
<path style="fill:#c77066; stroke:none;" d="M117 215L118 216L117 215M357 215L358 216L357 215z"/>
<path style="fill:#eea496; stroke:none;" d="M410 215L411 216L410 215z"/>
<path style="fill:#c77066; stroke:none;" d="M411 215L412 216L411 215M445 215L446 216L445 215z"/>
<path style="fill:#eea496; stroke:none;" d="M446 215L447 216L446 215M463 215L464 216L463 215M9 216L10 217L9 216M62 216L63 217L62 216z"/>
<path style="fill:#c77066; stroke:none;" d="M97 216L98 217L97 216z"/>
<path style="fill:#eea496; stroke:none;" d="M98 216L99 217L98 216z"/>
<path style="fill:#c77066; stroke:none;" d="M115 216L116 217L115 216z"/>
<path style="fill:#eea496; stroke:none;" d="M359 216L360 217L359 216M412 216L413 217L412 216z"/>
<path style="fill:#c77066; stroke:none;" d="M447 216L448 217L447 216z"/>
<path style="fill:#eea496; stroke:none;" d="M448 216L449 217L448 216M465 216L466 217L465 216M7 217L8 218L7 217M60 217L61 218L60 217z"/>
<path style="fill:#c77066; stroke:none;" d="M95 217L96 218L95 217z"/>
<path style="fill:#eea496; stroke:none;" d="M96 217L97 218L96 217M113 217L114 218L113 217M361 217L362 218L361 217M414 217L415 218L414 217z"/>
<path style="fill:#c77066; stroke:none;" d="M449 217L450 218L449 217z"/>
<path style="fill:#eea496; stroke:none;" d="M450 217L451 218L450 217M467 217L468 218L467 217z"/>
<path style="fill:#c77066; stroke:none;" d="M5 218L6 219L5 218z"/>
<path style="fill:#eea496; stroke:none;" d="M58 218L59 219L58 218z"/>
<path style="fill:#c77066; stroke:none;" d="M93 218L94 219L93 218z"/>
<path style="fill:#eea496; stroke:none;" d="M94 218L95 219L94 218M111 218L112 219L111 218M363 218L364 219L363 218z"/>
<path style="fill:#c77066; stroke:none;" d="M416 218L417 219L416 218M451 218L452 219L451 218z"/>
<path style="fill:#eea496; stroke:none;" d="M452 218L453 219L452 218z"/>
<path style="fill:#c77066; stroke:none;" d="M469 218L470 219L469 218M3 219L4 220L3 219z"/>
<path style="fill:#eea496; stroke:none;" d="M56 219L57 220L56 219z"/>
<path style="fill:#c77066; stroke:none;" d="M57 219L58 220L57 219M91 219L92 220L91 219z"/>
<path style="fill:#eea496; stroke:none;" d="M92 219L93 220L92 219M109 219L110 220L109 219M365 219L366 220L365 219M417 219L418 220L417 219z"/>
<path style="fill:#c77066; stroke:none;" d="M418 219L419 220L418 219z"/>
<path style="fill:#eea496; stroke:none;" d="M453 219L454 220L453 219M470 219L471 220L470 219z"/>
<path style="fill:#c77066; stroke:none;" d="M471 219L472 220L471 219z"/>
<path style="fill:#eea496; stroke:none;" d="M1 220L2 221L1 220M54 220L55 221L54 220z"/>
<path style="fill:#c77066; stroke:none;" d="M55 220L56 221L55 220M89 220L90 221L89 220z"/>
<path style="fill:#eea496; stroke:none;" d="M90 220L91 221L90 220M107 220L108 221L107 220z"/>
<path style="fill:#c77066; stroke:none;" d="M366 220L367 221L366 220z"/>
<path style="fill:#eea496; stroke:none;" d="M367 220L368 221L367 220M419 220L420 221L419 220z"/>
<path style="fill:#c77066; stroke:none;" d="M420 220L421 221L420 220M454 220L455 221L454 220z"/>
<path style="fill:#eea496; stroke:none;" d="M455 220L455 221L458 222L455 220M52 221L53 222L52 221z"/>
<path style="fill:#c77066; stroke:none;" d="M53 221L54 222L53 221M87 221L88 222L87 221z"/>
<path style="fill:#eea496; stroke:none;" d="M88 221L89 222L88 221z"/>
<path style="fill:#c77066; stroke:none;" d="M106 221L107 222L106 221M368 221L369 222L368 221z"/>
<path style="fill:#eea496; stroke:none;" d="M369 221L370 222L369 221M421 221L422 222L421 221z"/>
<path style="fill:#c77066; stroke:none;" d="M422 221L423 222L422 221M456 221L457 222L456 221z"/>
<path style="fill:#eea496; stroke:none;" d="M50 222L51 223L50 222z"/>
<path style="fill:#c77066; stroke:none;" d="M51 222L52 223L51 222z"/>
<path style="fill:#eea496; stroke:none;" d="M86 222L87 223L86 222M103 222L104 223L103 222z"/>
<path style="fill:#c77066; stroke:none;" d="M104 222L105 223L104 222M370 222L371 223L370 222z"/>
<path style="fill:#eea496; stroke:none;" d="M423 222L424 223L423 222z"/>
<path style="fill:#c77066; stroke:none;" d="M424 222L425 223L424 222z"/>
<path style="fill:#eea496; stroke:none;" d="M459 222L460 223L459 222M48 223L49 224L48 223z"/>
<path style="fill:#c77066; stroke:none;" d="M49 223L50 224L49 223z"/>
<path style="fill:#eea496; stroke:none;" d="M84 223L85 224L84 223z"/>
<path style="fill:#c77066; stroke:none;" d="M102 223L103 224L102 223M372 223L373 224L372 223z"/>
<path style="fill:#eea496; stroke:none;" d="M425 223L426 224L425 223z"/>
<path style="fill:#c77066; stroke:none;" d="M426 223L427 224L426 223M460 223L461 224L460 223z"/>
<path style="fill:#eea496; stroke:none;" d="M461 223L462 224L461 223M46 224L47 225L46 224z"/>
<path style="fill:#c77066; stroke:none;" d="M47 224L48 225L47 224M82 224L83 225L82 224z"/>
<path style="fill:#eea496; stroke:none;" d="M83 224L84 225L83 224z"/>
<path style="fill:#c77066; stroke:none;" d="M100 224L101 225L100 224M374 224L375 225L374 224z"/>
<path style="fill:#eea496; stroke:none;" d="M427 224L428 225L427 224z"/>
<path style="fill:#c77066; stroke:none;" d="M428 224L429 225L428 224M462 224L465 226L465 225L462 224z"/>
<path style="fill:#eea496; stroke:none;" d="M463 224L464 225L463 224M45 225L46 226L45 225z"/>
<path style="fill:#c77066; stroke:none;" d="M80 225L81 226L80 225z"/>
<path style="fill:#eea496; stroke:none;" d="M81 225L82 226L81 225z"/>
<path style="fill:#c77066; stroke:none;" d="M98 225L99 226L98 225M376 225L377 226L376 225z"/>
<path style="fill:#eea496; stroke:none;" d="M429 225L432 227L432 226L429 225z"/>
<path style="fill:#c77066; stroke:none;" d="M430 225L431 226L430 225z"/>
<path style="fill:#eea496; stroke:none;" d="M465 225L466 226L465 225z"/>
<path style="fill:#c77066; stroke:none;" d="M43 226L44 227L43 226M78 226L79 227L78 226z"/>
<path style="fill:#eea496; stroke:none;" d="M79 226L80 227L79 226z"/>
<path style="fill:#c77066; stroke:none;" d="M96 226L97 227L96 226z"/>
<path style="fill:#eea496; stroke:none;" d="M378 226L379 227L378 226z"/>
<path style="fill:#c77066; stroke:none;" d="M432 226L433 227L432 226M466 226L467 227L466 226z"/>
<path style="fill:#eea496; stroke:none;" d="M467 226L468 227L467 226z"/>
<path style="fill:#c77066; stroke:none;" d="M41 227L42 228L41 227M76 227L77 228L76 227z"/>
<path style="fill:#eea496; stroke:none;" d="M77 227L78 228L77 227M94 227L95 228L94 227M380 227L381 228L380 227M433 227L434 228L433 227z"/>
<path style="fill:#c77066; stroke:none;" d="M468 227L469 228L468 227z"/>
<path style="fill:#eea496; stroke:none;" d="M469 227L470 228L469 227M35 230L35 231L40 229L35 230z"/>
<path style="fill:#c77066; stroke:none;" d="M74 228L75 229L74 228z"/>
<path style="fill:#eea496; stroke:none;" d="M75 228L76 229L75 228M92 228L93 229L92 228M382 228L383 229L382 228z"/>
<path style="fill:#c77066; stroke:none;" d="M435 228L436 229L435 228M470 228L471 229L470 228z"/>
<path style="fill:#eea496; stroke:none;" d="M471 228L472 229L471 228z"/>
<path style="fill:#c77066; stroke:none;" d="M38 229L39 230L38 229M72 229L73 230L72 229z"/>
<path style="fill:#eea496; stroke:none;" d="M73 229L74 230L73 229M90 229L91 230L90 229M436 229L437 230L436 229z"/>
<path style="fill:#c77066; stroke:none;" d="M437 229L438 230L437 229z"/>
<path style="fill:#eea496; stroke:none;" d="M472.667 229.333L473.333 229.667L472.667 229.333z"/>
<path style="fill:#c77066; stroke:none;" d="M36 230L37 231L36 230M70 230L71 231L70 230z"/>
<path style="fill:#eea496; stroke:none;" d="M71 230L72 231L71 230M88 230L89 231L88 230M386 230L387 231L386 230M438 230L439 231L438 230z"/>
<path style="fill:#c77066; stroke:none;" d="M439 230L439 231L442 232L439 230z"/>
<path style="fill:#eea496; stroke:none;" d="M33 231L34 232L33 231z"/>
<path style="fill:#c77066; stroke:none;" d="M34 231L35 232L34 231M68 231L69 232L68 231z"/>
<path style="fill:#eea496; stroke:none;" d="M69 231L70 232L69 231M86 231L87 232L86 231z"/>
<path style="fill:#c77066; stroke:none;" d="M87 231L88 232L87 231M387 231L388 232L387 231z"/>
<path style="fill:#eea496; stroke:none;" d="M388 231L389 232L388 231M440 231L441 232L440 231M31 232L32 233L31 232z"/>
<path style="fill:#c77066; stroke:none;" d="M32 232L33 233L32 232z"/>
<path style="fill:#eea496; stroke:none;" d="M67 232L68 233L67 232z"/>
<path style="fill:#c77066; stroke:none;" d="M85 232L86 233L85 232M389 232L390 233L389 232z"/>
<path style="fill:#eea496; stroke:none;" d="M390 232L391 233L390 232M442 232L443 233L442 232z"/>
<path style="fill:#c77066; stroke:none;" d="M443 232L444 233L443 232z"/>
<path style="fill:#eea496; stroke:none;" d="M29 233L30 234L29 233z"/>
<path style="fill:#c77066; stroke:none;" d="M30 233L31 234L30 233M64 233L65 234L64 233z"/>
<path style="fill:#eea496; stroke:none;" d="M65 233L66 234L65 233z"/>
<path style="fill:#c77066; stroke:none;" d="M83 233L84 234L83 233M391 233L392 234L391 233z"/>
<path style="fill:#eea496; stroke:none;" d="M444 233L445 234L444 233z"/>
<path style="fill:#c77066; stroke:none;" d="M445 233L446 234L445 233z"/>
<path style="fill:#eea496; stroke:none;" d="M27 234L28 235L27 234z"/>
<path style="fill:#c77066; stroke:none;" d="M28 234L29 235L28 234z"/>
<path style="fill:#eea496; stroke:none;" d="M63 234L64 235L63 234z"/>
<path style="fill:#c77066; stroke:none;" d="M81 234L82 235L81 234M393 234L394 235L393 234z"/>
<path style="fill:#eea496; stroke:none;" d="M446 234L447 235L446 234M25 235L26 236L25 235z"/>
<path style="fill:#c77066; stroke:none;" d="M26 235L27 236L26 235M61 235L62 236L61 235M79 235L80 236L79 235M395 235L396 236L395 235z"/>
<path style="fill:#eea496; stroke:none;" d="M448 235L449 236L448 235z"/>
<path style="fill:#c77066; stroke:none;" d="M449 235L450 236L449 235z"/>
<path style="fill:#eea496; stroke:none;" d="M23.6667 236.333L24.3333 236.667L23.6667 236.333z"/>
<path style="fill:#c77066; stroke:none;" d="M59 236L60 237L59 236M77 236L78 237L77 236M397 236L398 237L397 236z"/>
<path style="fill:#eea496; stroke:none;" d="M450 236L451 237L450 236z"/>
<path style="fill:#c77066; stroke:none;" d="M451 236L452 237L451 236z"/>
<path style="fill:#eea496; stroke:none;" d="M21 237L22 238L21 237z"/>
<path style="fill:#c77066; stroke:none;" d="M22 237L23 238L22 237M57 237L58 238L57 237z"/>
<path style="fill:#eea496; stroke:none;" d="M75 237L76 238L75 237M399 237L400 238L399 237M452 237L453 238L452 237M20 238L21 239L20 238z"/>
<path style="fill:#c77066; stroke:none;" d="M53 240L56 239L53 240z"/>
<path style="fill:#eea496; stroke:none;" d="M73 238L74 239L73 238M401 238L402 239L401 238M454 238L455 239L454 238M18 239L19 240L18 239M54 239L55 240L54 239M71 239L72 240L71 239M403 239L404 240L403 239M455 239L456 240L455 239z"/>
<path style="fill:#c77066; stroke:none;" d="M456 239L457 240L456 239M16.6667 240.333L17.3333 240.667L16.6667 240.333M51 240L52 241L51 240z"/>
<path style="fill:#eea496; stroke:none;" d="M52 240L53 241L52 240M69 240L70 241L69 240M405 240L406 241L405 240M457 240L458 241L457 240z"/>
<path style="fill:#c77066; stroke:none;" d="M458 240L459 241L458 240z"/>
<path style="fill:#eea496; stroke:none;" d="M14 241L15 242L14 241z"/>
<path style="fill:#c77066; stroke:none;" d="M49 241L50 242L49 241z"/>
<path style="fill:#eea496; stroke:none;" d="M50 241L51 242L50 241M67 241L68 242L67 241M407 241L408 242L407 241M459 241L460 242L459 241z"/>
<path style="fill:#c77066; stroke:none;" d="M460 241L461 242L460 241z"/>
<path style="fill:#eea496; stroke:none;" d="M12 242L13 243L12 242z"/>
<path style="fill:#c77066; stroke:none;" d="M13 242L14 243L13 242z"/>
<path style="fill:#eea496; stroke:none;" d="M48.6667 242.333L49.3333 242.667L48.6667 242.333M65 242L66 243L65 242z"/>
<path style="fill:#c77066; stroke:none;" d="M408 242L409 243L408 242z"/>
<path style="fill:#eea496; stroke:none;" d="M409 242L410 243L409 242M461 242L462 243L461 242z"/>
<path style="fill:#c77066; stroke:none;" d="M462 242L463 243L462 242z"/>
<path style="fill:#eea496; stroke:none;" d="M10 243L11 244L10 243z"/>
<path style="fill:#c77066; stroke:none;" d="M11 243L12 244L11 243M46 243L47 244L46 243M64 243L65 244L64 243M410 243L411 244L410 243z"/>
<path style="fill:#eea496; stroke:none;" d="M463 243L464 244L463 243z"/>
<path style="fill:#c77066; stroke:none;" d="M464 243L465 244L464 243z"/>
<path style="fill:#eea496; stroke:none;" d="M8 244L9 245L8 244z"/>
<path style="fill:#c77066; stroke:none;" d="M9 244L10 245L9 244M44 244L45 245L44 244M62 244L63 245L62 244M412 244L413 245L412 244z"/>
<path style="fill:#eea496; stroke:none;" d="M465 244L466 245L465 244z"/>
<path style="fill:#c77066; stroke:none;" d="M466 244L467 245L466 244z"/>
<path style="fill:#eea496; stroke:none;" d="M6 245L7 246L6 245z"/>
<path style="fill:#c77066; stroke:none;" d="M7 245L8 246L7 245M41 245L40 247L41 245z"/>
<path style="fill:#eea496; stroke:none;" d="M42 245L43 246L42 245z"/>
<path style="fill:#c77066; stroke:none;" d="M60 245L61 246L60 245M414 245L415 246L414 245z"/>
<path style="fill:#eea496; stroke:none;" d="M467 245L470 248L467 245z"/>
<path style="fill:#c77066; stroke:none;" d="M468 245L469 246L468 245z"/>
<path style="fill:#eea496; stroke:none;" d="M4.66667 246.333L5.33333 246.667L4.66667 246.333M41 246L40 248L42 248L41 246z"/>
<path style="fill:#c77066; stroke:none;" d="M58.3333 246.667L58.6667 247.333L58.3333 246.667z"/>
<path style="fill:#eea496; stroke:none;" d="M416 246L417 247L416 246z"/>
<path style="fill:#c77066; stroke:none;" d="M470.333 246.667L470.667 247.333L470.333 246.667M5 247L6 248L5 247M416 247L417 248L416 247z"/>
</svg>
