<?xml version="1.0"?>
<svg xmlns="http://www.w3.org/2000/svg" id="Layer_5" enable-background="new 0 0 64 64" height="512px" viewBox="0 0 64 64" width="512px"><g><path d="m57.293 15.293-6.293 6.293-1.293-1.293-1.414 1.414 2.707 2.707 7.707-7.707z" fill="#C03437"/><path d="m53 9c-1.422 0-2.774.303-4 .841v-1.841c0-2.757-2.243-5-5-5h-7c0-1.103-.897-2-2-2h-4c-1.103 0-2 .897-2 2h-8c0-1.103-.897-2-2-2h-4c-1.103 0-2 .897-2 2h-7c-2.757 0-5 2.243-5 5v50c0 2.757 2.243 5 5 5h38c2.757 0 5-2.243 5-5v-25.586l3.442-3.442c.186.01.37.028.558.028 5.514 0 10-4.486 10-10s-4.486-10-10-10zm-9-4c1.654 0 3 1.346 3 3v3.019c-.758.571-1.431 1.246-2 2.006v-4.025c0-1.103-.897-2-2-2h-6v-2zm-22.563 39.851 5.712 5.712-7.198 2.399c-.464.157-.952-.21-.951-.683 0-.076.013-.156.036-.228zm.977-1.851 21.035-21.035c.386 1.24 1.008 2.377 1.813 3.359l-20.262 20.262zm8.586-40h4l.001 6h-4.001zm-2 2v2h-8v-2zm-14-2h4l.001 6h-4.001zm4 8c1.103 0 2-.897 2-2h8c0 1.103.897 2 2 2h4c1.103 0 2-.897 2-2h6v9.045h.048c-.03.315-.048.633-.048.955 0 .188.018.372.028.558l-22.902 22.902-2.988 8.962c-.091.278-.138.566-.138.857 0 1.5 1.221 2.721 2.721 2.721.291 0 .579-.047.86-.14l8.959-2.986 13.46-13.46v10.586h-8v8h-28v-48h6c0 1.103.897 2 2 2zm22.586 40-4.586 4.586v-4.586zm5.414 7c0 1.654-1.346 3-3 3h-38c-1.654 0-3-1.346-3-3v-50c0-1.654 1.346-3 3-3h7v2h-6c-1.103 0-2 .897-2 2v48c0 1.103.897 2 2 2h29.414l8.586-8.586v-14l2-2zm-18-8.414-2.586-2.586 20.261-20.262c.982.804 2.119 1.427 3.359 1.813zm24-22.586c-4.411 0-8-3.589-8-8s3.589-8 8-8 8 3.589 8 8-3.589 8-8 8z" fill="#C03437"/><path d="m9 19h6v-6h-6zm2-4h2v2h-2z" fill="#C03437"/><path d="m9 27h6v-6h-6zm2-4h2v2h-2z" fill="#C03437"/><path d="m9 35h6v-6h-6zm2-4h2v2h-2z" fill="#C03437"/><path d="m9 43h6v-6h-6zm2-4h2v2h-2z" fill="#C03437"/><path d="m9 51h6v-6h-6zm2-4h2v2h-2z" fill="#C03437"/><path d="m17 13h24v2h-24z" fill="#C03437"/><path d="m17 17h24v2h-24z" fill="#C03437"/><path d="m17 21h12v2h-12z" fill="#C03437"/><path d="m17 25h12v2h-12z" fill="#C03437"/><path d="m17 29h10v2h-10z" fill="#C03437"/><path d="m17 33h10v2h-10z" fill="#C03437"/></g></svg>
