<?xml version="1.0" encoding="iso-8859-1"?>
<!-- Generator: Adobe Illustrator 19.0.0, SVG Export Plug-In . SVG Version: 6.00 Build 0)  -->
<svg xmlns="http://www.w3.org/2000/svg" xmlns:xlink="http://www.w3.org/1999/xlink" version="1.1" id="Capa_1" x="0px" y="0px" viewBox="0 0 497.616 497.616" style="enable-background:new 0 0 497.616 497.616;" xml:space="preserve" width="512px" height="512px">
<g>
	<g>
		<g>
			<path d="M440.808,417.616v-32h-24v-184h16v-48h-17.472c0.896-2.512,1.472-5.184,1.472-8s-0.576-5.488-1.472-8h17.472v-29.768     L274.16,54.968c4.088-4.976,6.648-11.264,6.648-18.2c0-9.664-4.8-18.632-12.848-24L248.808,0l-19.16,12.776     c-8.04,5.36-12.84,14.336-12.84,23.992c0,6.936,2.56,13.216,6.648,18.192L64.808,107.848v29.768H82.28     c-0.896,2.512-1.472,5.184-1.472,8s0.576,5.488,1.472,8H64.808v48h16v184h-24v32h-16v80h416v-80H440.808z M238.528,26.088     l10.28-6.856l10.28,6.848c3.576,2.392,5.72,6.384,5.72,10.688c0,7.088-5.76,12.848-12.848,12.848h-6.312     c-7.08,0-12.84-5.76-12.84-12.848C232.808,32.464,234.952,28.472,238.528,26.088z M80.808,121.616v-2.232l161.296-53.768h3.544     h6.312h3.544l161.304,53.768v2.232H80.808z M400.808,145.616c0,4.416-3.584,8-8,8c-4.416,0-8-3.584-8-8s3.584-8,8-8     C397.224,137.616,400.808,141.2,400.808,145.616z M370.28,153.616h-50.952c0.904-2.512,1.48-5.184,1.48-8s-0.576-5.488-1.472-8     h50.952c-0.904,2.512-1.48,5.184-1.48,8S369.384,151.104,370.28,153.616z M304.808,145.616c0,4.416-3.584,8-8,8     c-4.416,0-8-3.584-8-8s3.584-8,8-8C301.224,137.616,304.808,141.2,304.808,145.616z M274.28,153.616h-50.952     c0.904-2.512,1.48-5.184,1.48-8s-0.576-5.488-1.472-8h50.952c-0.904,2.512-1.48,5.184-1.48,8S273.384,151.104,274.28,153.616z      M208.808,145.616c0,4.416-3.584,8-8,8s-8-3.584-8-8s3.584-8,8-8S208.808,141.2,208.808,145.616z M178.28,153.616h-50.952     c0.904-2.512,1.48-5.184,1.48-8s-0.576-5.488-1.472-8h50.952c-0.904,2.512-1.48,5.184-1.48,8S177.384,151.104,178.28,153.616z      M112.808,145.616c0,4.416-3.584,8-8,8s-8-3.584-8-8s3.584-8,8-8S112.808,141.2,112.808,145.616z M80.808,169.616h336v16h-336     V169.616z M344.808,225.616c-22.056,0-40,17.944-40,40v120h-16v-120c0-22.056-17.944-40-40-40c-22.056,0-40,17.944-40,40v120h-16     v-120c0-22.056-17.944-40-40-40c-22.056,0-40,17.944-40,40v120h-16v-184h304v184h-16v-120     C384.808,243.56,366.864,225.616,344.808,225.616z M336.808,289.616v96h-16v-120c0-13.232,10.768-24,24-24s24,10.768,24,24v120     h-16v-96H336.808z M240.808,289.616v96h-16v-120c0-13.232,10.768-24,24-24c13.232,0,24,10.768,24,24v120h-16v-96H240.808z      M144.808,289.616v96h-16v-120c0-13.232,10.768-24,24-24s24,10.768,24,24v120h-16v-96H144.808z M440.808,481.616h-384v-48h336     v-16h-320v-16h40h80h16h80h16h80h40v16h-16v16h32V481.616z" fill="#C03437"/>
			<rect x="240.808" y="449.616" width="16" height="16" fill="#C03437"/>
			<rect x="192.808" y="449.616" width="16" height="16" fill="#C03437"/>
			<rect x="144.808" y="449.616" width="16" height="16" fill="#C03437"/>
			<rect x="88.808" y="449.616" width="16" height="16" fill="#C03437"/>
			<rect x="296.808" y="449.616" width="16" height="16" fill="#C03437"/>
			<rect x="344.808" y="449.616" width="16" height="16" fill="#C03437"/>
			<rect x="392.808" y="449.616" width="16" height="16" fill="#C03437"/>
			<rect x="240.808" y="257.616" width="16" height="16" fill="#C03437"/>
			<rect x="336.808" y="257.616" width="16" height="16" fill="#C03437"/>
			<rect x="144.808" y="257.616" width="16" height="16" fill="#C03437"/>
		</g>
	</g>
</g>
<g>
</g>
<g>
</g>
<g>
</g>
<g>
</g>
<g>
</g>
<g>
</g>
<g>
</g>
<g>
</g>
<g>
</g>
<g>
</g>
<g>
</g>
<g>
</g>
<g>
</g>
<g>
</g>
<g>
</g>
</svg>
