<?xml version="1.0"?>
<svg xmlns="http://www.w3.org/2000/svg" id="Capa_1" enable-background="new 0 0 512 512" height="512px" viewBox="0 0 512 512" width="512px"><g><g><path d="m452.419 210.228c10.146-15.544 8.272-35.768-4.558-49.182-5.653-5.911-8.016-14.217-6.321-22.219 3.847-18.158-5.207-36.34-22.017-44.215-7.406-3.47-12.61-10.36-13.92-18.434-2.974-18.322-17.985-32.005-36.503-33.276-8.158-.56-15.501-5.106-19.639-12.16-9.391-16.01-28.333-23.348-46.058-17.843-7.814 2.426-16.299.839-22.705-4.244-14.543-11.539-34.854-11.54-49.393 0-6.409 5.084-14.895 6.671-22.707 4.243-17.727-5.499-36.666 1.834-46.057 17.844-4.139 7.054-11.481 11.6-19.64 12.16-18.518 1.271-33.528 14.955-36.502 33.277-1.31 8.073-6.514 14.963-13.92 18.433-16.81 7.875-25.863 26.057-22.017 44.216 1.695 8.001-.668 16.307-6.321 22.218-12.83 13.414-14.704 33.639-4.558 49.181 4.47 6.85 5.267 15.449 2.131 23.002-7.118 17.143-1.559 36.678 13.517 47.508 6.642 4.771 10.492 12.502 10.296 20.678-.444 18.556 11.796 34.765 29.766 39.417 5.303 1.373 9.91 4.442 13.212 8.627l-41.325 99.758c-2.679 6.466-1.418 13.699 3.29 18.878 4.709 5.178 11.793 7.121 18.482 5.067l45.242-13.883c1.315-.405 2.745.187 3.391 1.405l22.172 41.808c3.141 5.922 9.126 9.507 15.769 9.507 7.323 0 13.754-4.275 16.557-11.043l43.071-103.978c.564-.019 1.128-.019 1.692 0l43.071 103.978c2.677 6.465 8.684 10.689 15.674 11.021 6.881.342 13.331-3.225 16.651-9.486l22.171-41.807c.648-1.219 2.072-1.813 3.393-1.406l45.241 13.883c6.693 2.053 13.774.111 18.482-5.067 4.708-5.179 5.969-12.412 3.29-18.877l-41.322-99.76c3.302-4.184 7.908-7.253 13.212-8.626 17.97-4.652 30.21-20.861 29.766-39.416-.195-8.177 3.654-15.908 10.297-20.679 15.075-10.83 20.634-30.365 13.516-47.507-3.136-7.553-2.339-16.152 2.131-23.001zm-254.197 284.987c-.61 1.47-1.844 1.744-2.527 1.777-.678.031-1.938-.123-2.683-1.529l-22.173-41.809c-4.013-7.564-12.863-11.229-21.048-8.718l-45.241 13.883c-1.521.466-2.52-.312-2.979-.817s-1.139-1.573-.53-3.043l36.661-88.505c8.272 11.331 22.098 17.648 36.655 15.942 8.128-.947 16.177 2.171 21.54 8.345 10.243 11.789 26.001 16.298 40.518 12.271zm212.207-37.213c-.46.506-1.459 1.283-2.979.817l-45.24-13.883c-8.183-2.51-17.036 1.154-21.05 8.719l-22.172 41.807c-.744 1.405-1.99 1.553-2.684 1.53-.682-.033-1.916-.307-2.526-1.777l-38.201-92.221c3.488.969 7.046 1.463 10.584 1.463 11.188-.001 22.157-4.757 29.941-13.716 5.364-6.174 13.422-9.294 21.54-8.345 14.551 1.699 28.382-4.615 36.655-15.944l36.661 88.509c.61 1.469-.07 2.536-.529 3.041zm29.426-255.974c-7.182 11.003-8.463 24.818-3.425 36.955 4.43 10.669.971 22.828-8.413 29.568-10.671 7.666-16.856 20.086-16.543 33.223.276 11.549-7.342 21.638-18.527 24.533-10.468 2.71-19.256 9.524-24.525 18.739-.011.021-.023.042-.034.063-1.119 1.966-2.088 4.034-2.868 6.201-3.915 10.87-14.674 17.521-26.138 16.183-13.056-1.526-25.99 3.489-34.608 13.406-7.577 8.721-20.005 11.045-30.219 5.65-11.373-6.006-25.309-6.234-37.114 0-10.217 5.396-22.643 3.071-30.219-5.65-8.618-9.919-21.559-14.931-34.608-13.406-11.477 1.335-22.224-5.315-26.138-16.183-.779-2.163-1.745-4.226-2.861-6.188-.017-.032-.035-.064-.052-.096-5.27-9.205-14.054-16.011-24.514-18.72-11.185-2.895-18.803-12.983-18.527-24.534.314-13.137-5.871-25.557-16.543-33.222-9.384-6.74-12.843-18.899-8.413-29.569 5.038-12.136 3.758-25.95-3.425-36.955-6.315-9.674-5.149-22.262 2.837-30.611 9.082-9.496 12.879-22.841 10.156-35.697-2.393-11.302 3.242-22.619 13.704-27.52 11.899-5.575 20.26-16.646 22.365-29.616 1.851-11.405 11.194-19.922 22.719-20.713 13.109-.899 24.905-8.202 31.554-19.537 5.847-9.965 17.635-14.531 28.668-11.107 12.548 3.896 26.186 1.35 36.482-6.819 9.049-7.181 21.692-7.181 30.741 0h.001c10.294 8.168 23.932 10.715 36.48 6.82 11.035-3.427 22.823 1.14 28.669 11.106 6.649 11.335 18.445 18.638 31.553 19.537 11.526.791 20.869 9.308 22.72 20.712 2.105 12.971 10.466 24.043 22.365 29.617 10.462 4.901 16.097 16.218 13.704 27.519-2.723 12.856 1.073 26.201 10.156 35.698 7.989 8.35 9.155 20.938 2.84 30.613z" fill="#C03437"/><path d="m404.029 211.439c-4.101-.467-7.828 2.503-8.289 6.621-3.145 28.096-14.423 53.459-31.329 73.871v-4.412c0-18.991-12.727-35.991-30.949-41.341l-20.738-6.088c-1.751-2.145-4.146-3.725-6.906-4.448-.152-.04-.306-.074-.459-.105l-18.646-3.645v-13.49c10.31-7.861 17.567-19.574 19.516-33.056 5.485-1.99 9.412-7.253 9.412-13.415 0-14.707 0-27.791 0-42.669 0-10.371-7.799-18.954-17.839-20.194-1.459-9.797-9.928-17.337-20.126-17.337h-44.267c-20.439 0-37.067 16.628-37.067 37.066v43.134c0 6.163 3.928 11.425 9.412 13.415 1.95 13.483 9.207 25.196 19.517 33.057v13.49l-18.382 3.565c-.161.031-.32.068-.479.109-2.756.725-5.149 2.31-6.9 4.458l-20.97 6.154c-18.224 5.348-30.951 22.349-30.951 41.342v4.409c-16.906-20.412-28.184-45.775-31.329-73.871-.46-4.118-4.179-7.088-8.289-6.621-4.118.461-7.082 4.172-6.621 8.289 8.815 78.746 75.299 138.127 154.65 138.127s145.835-59.382 154.65-138.127c.461-4.116-2.503-7.827-6.621-8.288zm-54.622 76.08v19.934c-17.318 15.359-38.432 26.455-61.669 31.802l-14.003-46.217 10.403-9.966c.558.065 1.117.106 1.676.106 4.423 0 8.779-2.02 11.606-5.804l15.664-20.96c.117-.157.21-.327.32-.488l15.83 4.647c11.878 3.487 20.173 14.568 20.173 26.946zm-99.647-4.215-7.658-7.228 14.367-9.398 13.676 9.021-7.938 7.605zm35.944-15.315-16.811-11.09 12.461-10.767 18.048 3.528zm-52.295-161.255h44.267c2.947 0 5.344 2.397 5.344 5.344 0 6.529 5.312 11.84 11.841 11.84h.433c2.947 0 5.344 2.397 5.344 5.344v20.551h-10.524c-.792 0-1.437-.645-1.437-1.438v-4.892c0-6.906-4.064-12.335-11.15-14.895-4.126-1.491-8.013-1.566-8.75-1.566v.019c-1.685-.026-25.646-.019-25.747-.019-9.505.172-19.723 5.392-19.723 16.459v4.894c0 .793-.645 1.438-1.437 1.438h-10.524v-21.016c-.001-12.166 9.897-22.063 22.063-22.063zm-22.064 64.487v-6.405h10.524c9.066 0 16.44-7.376 16.44-16.441v-4.894c0-.064.003-.113.006-.149.593-.56 2.804-1.232 4.811-1.304.057.001.117 0 .178.001.948-.004 18.666-.003 25.421-.003 1.831.028 4.295.686 4.942 1.303.004.037.007.088.007.154v4.892c0 8.806 6.964 15.997 15.672 16.402.677.069.152.026 11.293.039v6.405c-4.781.363-8.652 4.229-8.96 9.101-1.183 18.773-16.858 33.478-35.686 33.478-18.827 0-34.502-14.706-35.686-33.479-.309-4.871-4.18-8.737-8.962-9.1zm44.646 57.582c5.473 0 10.758-.88 15.717-2.502v8.335l-15.326 13.242-16.108-13.329v-8.248c4.96 1.623 10.244 2.502 15.717 2.502zm-25.269 17.316 13.144 10.877-17.354 11.351-13.702-18.754zm-47.956 14.456 16.073-4.717c.081.119.147.246.232.363 0 0 .001 0 .001.001l15.625 21.386c2.826 3.868 7.22 5.937 11.691 5.937.553 0 1.106-.04 1.659-.104l10.209 9.636-13.957 46.187c-23.252-5.344-44.379-16.443-61.706-31.811v-19.931c0-12.38 8.296-23.461 20.173-26.947zm56.424 81.281 13.16-43.549h7.306l13.193 43.544c-5.529.659-11.151 1.001-16.848 1.001-5.684 0-11.294-.34-16.811-.996z" fill="#C03437"/><path d="m108.088 191.268c4.095.494 7.858-2.41 8.368-6.522 8.703-70.197 68.694-123.133 139.544-123.133 70.881 0 130.876 52.961 139.551 123.193.469 3.799 3.703 6.583 7.435 6.583.307 0 .617-.019.93-.058 4.111-.508 7.033-4.253 6.525-8.365-9.602-77.736-75.998-136.357-154.441-136.357-78.41 0-144.801 58.592-154.434 136.291-.509 4.112 2.411 7.859 6.522 8.368z" fill="#C03437"/></g></g></svg>
